<svg xmlns="http://www.w3.org/2000/svg" viewBox="0 0 4680 3120"><defs><style>.cls-1,.cls-17{fill:#fff;}.cls-1{opacity:0;}.cls-2{opacity:0.35;}.cls-3{fill:#ffe2b0;}.cls-4{fill:#fcc472;}.cls-5{fill:#fff6dc;}.cls-6{fill:#ffeaae;}.cls-7{fill:#6292b2;}.cls-8{fill:#081d2d;}.cls-9{fill:#2b4256;}.cls-10{fill:#fcfcfc;}.cls-11{opacity:0.65;}.cls-12{fill:#ff9b80;}.cls-13{fill:#f16809;}.cls-14{fill:#203851;}.cls-15{fill:#ffc3ae;}.cls-16{fill:#ff9c1a;}.cls-18{fill:#83cce5;}</style></defs><title>05</title><g id="_05" data-name="05"><rect id="_05-2" data-name="05" class="cls-1" width="4680" height="3120"/><g class="cls-2"><circle class="cls-3" cx="2369.17" cy="1370.88" r="874.06"/></g><path class="cls-4" d="M1786.38,376.83H1282a27,27,0,0,0-26.81,27.06v665.78a27,27,0,0,0,26.81,27h504.39a27,27,0,0,0,26.8-27V403.89A27,27,0,0,0,1786.38,376.83Z"/><path class="cls-5" d="M1776.26,392.5H1292.5c-10.84,0-19.7,9.09-19.7,20.21v645.46c0,11.12,8.86,20.21,19.7,20.21h483.76c10.84,0,19.7-9.09,19.7-20.21V412.71C1796,401.59,1787.1,392.5,1776.26,392.5Z"/><rect class="cls-4" x="1273.52" y="521.04" width="520.83" height="7"/><rect class="cls-6" x="1298.94" y="469.09" width="265.7" height="25.83" rx="12.92"/><rect class="cls-6" x="1298.94" y="428.5" width="265.7" height="25.83" rx="12.92"/><rect class="cls-6" x="1529.41" y="653.35" width="89.2" height="366.56" rx="12"/><rect class="cls-6" x="1637.23" y="547.15" width="89.2" height="472.76" rx="12"/><rect class="cls-6" x="1422.37" y="622.52" width="89.2" height="397.4" rx="12"/><rect class="cls-6" x="1315.33" y="762.98" width="89.2" height="256.94" rx="12"/><path class="cls-4" d="M1711.58,567.41a4.54,4.54,0,0,0-5.73-2.9L1639.68,586a4.53,4.53,0,0,0-.66,8.35l25.06,12.71a4.52,4.52,0,0,1,1.66,6.63L1572.9,746.09a5.06,5.06,0,0,1-7,1.24l-10.42-7.27c-28-19.52-55.69-39.5-83.65-59.06a5.07,5.07,0,0,0-7,1.24L1345.33,852.48a5,5,0,0,0,1.24,7l17.58,12.26a5.06,5.06,0,0,0,7-1.25l101-143.93a5.05,5.05,0,0,1,7-1.24l86.55,60.35a3.58,3.58,0,0,0,.66.37,8.78,8.78,0,0,1,1.51.81l5.87,4.09a5.06,5.06,0,0,0,7-1.25l114.07-162.62a4.56,4.56,0,0,1,5.78-1.45l26,13.2a4.54,4.54,0,0,0,6.38-5.45Z"/><circle class="cls-6" cx="2113.87" cy="613.72" r="228.66"/><circle class="cls-5" cx="2147.93" cy="585.16" r="219.77" transform="translate(215.34 1690.2) rotate(-45)"/><rect class="cls-4" x="2144.81" y="374.32" width="3" height="41.01"/><path class="cls-4" d="M2147.35,355.93c-126.28,0-228.66,102.37-228.66,228.66s102.38,228.65,228.66,228.65S2376,710.87,2376,584.59,2273.63,355.93,2147.35,355.93Zm209.21,232.84c-2.19,112.83-93.24,203.9-206.07,206.1V751h-8.36v43.83c-112.82-2.2-203.87-93.25-206.07-206.07h44.73v-8.36h-44.73c2.2-112.82,93.25-203.87,206.07-206.07V418.2h8.36V374.37c112.81,2.2,203.85,93.23,206.07,206h-43.83v8.36Z"/><rect class="cls-4" x="2000.43" y="435.64" width="3" height="19.31" transform="translate(271.87 1546.62) rotate(-45.02)"/><rect class="cls-4" x="2063.75" y="391.64" width="3" height="19.56" transform="translate(27.39 924.41) rotate(-25.39)"/><rect class="cls-4" x="1962.39" y="495.26" width="3" height="23.33" transform="translate(904.79 2236.7) rotate(-73)"/><rect class="cls-4" x="1994.02" y="724.55" width="19.31" height="3" transform="translate(55.57 1590.19) rotate(-43.84)"/><rect class="cls-4" x="1951.33" y="660.33" width="19.56" height="3" transform="translate(-98.91 862.52) rotate(-24.21)"/><rect class="cls-4" x="2052.83" y="763.85" width="23.33" height="3" transform="translate(693 2487.83) rotate(-71.81)"/><rect class="cls-4" x="2226.76" y="754.53" width="3" height="23.33" transform="translate(-122.06 934.13) rotate(-23.06)"/><rect class="cls-4" x="2293.1" y="705.92" width="3" height="23.34" transform="translate(164.66 1832.7) rotate(-45)"/><rect class="cls-4" x="2327.8" y="650.45" width="3" height="23.33" transform="translate(971.6 2667.28) rotate(-71.77)"/><rect class="cls-4" x="2284.48" y="452.62" width="23.79" height="3" transform="translate(283.04 1648.29) rotate(-41.86)"/><rect class="cls-4" x="2322.91" y="515.36" width="22.28" height="3" transform="translate(-21.93 922.2) rotate(-22.25)"/><rect class="cls-4" x="2222.65" y="404.6" width="22.82" height="3" transform="translate(957.3 2283.82) rotate(-66.09)"/><path class="cls-4" d="M2150.6,572.32V440.61H2142V581.77c0,.31-5,1.78-5.36,1.91l-48.18,17.16-30.92,11L2043.11,617a69.57,69.57,0,0,0-6.63,2.36c-1.69.8-1.8.84-1.28,2.74a14.09,14.09,0,0,0,1.94,4.18c1.5,2.15,2.77,1,5.1.15l10.56-3.77,11.37-4,11.84-4.22,12-4.27,11.79-4.2,11.27-4,10.43-3.71,9.24-3.29,7.72-2.75c3.35-1.2,7.55-1.6,10.28-4.09a6.36,6.36,0,0,0,1.84-3.79,37,37,0,0,0,0-5.37Z"/><rect class="cls-7" x="1591.53" y="1927.56" width="64.51" height="782.87" rx="24.36"/><rect class="cls-7" x="1412.06" y="1839.32" width="423.45" height="105.6" rx="51.01"/><rect class="cls-8" x="1366.89" y="1816.83" width="536.23" height="105.6" rx="51.01"/><path class="cls-9" d="M1764.4,2686.48H1483.56a18.48,18.48,0,1,0,0,37H1764.4a18.48,18.48,0,1,0,0-37Z"/><rect class="cls-7" x="1432.62" y="2710.43" width="374.01" height="45.5" rx="20.23"/><rect class="cls-7" x="3063.82" y="1888.8" width="64.51" height="816.58" rx="24.36"/><rect class="cls-7" x="2884.35" y="1796.76" width="423.45" height="110.15" rx="51.01"/><rect class="cls-8" x="2839.18" y="1773.31" width="536.23" height="110.15" rx="51.01"/><rect class="cls-9" x="2937.37" y="2680.39" width="317.81" height="38.56" rx="18.75"/><rect class="cls-7" x="2904.92" y="2705.38" width="374.01" height="47.45" rx="20.23"/><path class="cls-10" d="M1543.8,1227.91l-93.36-100.82c-13.91-15-30.27-29-43.08-44.62-12.1-14.7-23.48-31-39.76-41.44-66.57-42.78-76.55,115-74.91,147.37,3.26,64.34,28,128.55,66.15,180.22,25.55,34.65,61.4,62.24,102.19,76.71,38.37,13.61,97.3,15.9,124.66-20.39,6.57-8.72,10.15-19.32,12.59-30,10.21-44.46,1.74-93.32-24.19-131C1565.19,1251,1554.48,1239.44,1543.8,1227.91Z"/><path d="M1544.9,1226.89l-93.36-100.82c-5.64-6.09-11.76-12.1-17.69-17.92-8.72-8.55-17.74-17.4-25.33-26.63-2.07-2.51-4.15-5.12-6.17-7.64-9.95-12.45-20.24-25.32-33.94-34.12-13.35-8.57-25.44-9.84-36-3.75-36.19,21-42.66,124.92-41.26,152.46,3.18,63,26.78,127.26,66.43,181,26.24,35.58,62.78,63,102.9,77.24a164.33,164.33,0,0,0,53.72,9.23c4.56,0,9-.21,13.38-.64,26.16-2.58,46.65-12.78,59.25-29.5,5.75-7.62,9.83-17.31,12.86-30.51,10.43-45.4,1.3-94.83-24.41-132.22C1566.35,1250.05,1555.45,1238.28,1544.9,1226.89Zm51.92,167.77c-2.93,12.77-6.85,22.11-12.33,29.38-15.27,20.25-39.51,26.58-57.15,28.32-20.89,2.06-44.88-1-65.81-8.44-39.56-14-75.6-41.09-101.48-76.19-39.31-53.31-62.7-117-65.86-179.41-.65-12.8.5-45,6.32-77,5-27.17,14.76-61.83,33.45-72.66a24.25,24.25,0,0,1,12.36-3.36c6.33,0,13.18,2.35,20.47,7,13.28,8.53,23.42,21.21,33.22,33.46,2,2.53,4.11,5.15,6.19,7.67,7.69,9.36,16.77,18.26,25.55,26.87,5.9,5.79,12,11.78,17.59,17.82l93.36,100.82c10.47,11.31,21.3,23,30.16,35.88C1598.1,1301.52,1607.06,1350.06,1596.82,1394.66Z"/><path class="cls-10" d="M1400.15,989.33a17.34,17.34,0,0,0-9.28-4,14.34,14.34,0,0,0-5.93.87c-3,1-5.94,2.39-7.84,4.86-5.76,7.48-.91,20.43.92,28.52,3,13.38,6.1,26.59,5.08,40.43-1.46,19.67-8.87,42.14-5.19,61.54a23.11,23.11,0,0,0,14.56-4.69c11.91-8.78,17.86-25,20.35-39,2.24-12.63,2-25.56,1.7-38.38C1414.17,1027.09,1412.67,999.69,1400.15,989.33Z"/><path d="M1401.11,988.18a18.84,18.84,0,0,0-10.07-4.3,16,16,0,0,0-6.57.93c-4,1.28-6.77,3-8.56,5.38-5.28,6.86-2.57,17.24-.4,25.59.39,1.49.76,2.9,1,4.17l.18.83c3,13.28,5.85,25.83,4.86,39.16-.49,6.64-1.65,13.49-2.88,20.75-2.34,13.83-4.75,28.14-2.28,41.18l.22,1.18,1.2,0,.82,0a24.59,24.59,0,0,0,14.68-5c13.87-10.22,19.07-29.39,20.93-39.91,2.23-12.58,2.09-25.48,1.73-38.69C1415.28,1013,1410.27,995.76,1401.11,988.18Zm10.23,89.49c-1.79,10.07-6.73,28.41-19.76,38a21.69,21.69,0,0,1-12.41,4.41c-2-12.21.29-25.78,2.51-38.91,1.19-7,2.41-14.24,2.91-21,1-13.77-2-27.13-4.92-40.05l-.19-.82c-.3-1.32-.67-2.76-1.07-4.27-2-7.71-4.51-17.3-.13-23,1.42-1.84,3.75-3.27,7.12-4.36a15,15,0,0,1,4.44-.84,6.35,6.35,0,0,1,.87,0,15.74,15.74,0,0,1,8.48,3.62h0c8.47,7,13.12,23.53,13.83,49.1C1413.38,1052.63,1413.52,1065.36,1411.34,1077.67Z"/><path class="cls-9" d="M2076,1545.92,1547,1552.39c-13.85.17-29.56,1.21-38.42,12.37-6.39,8-7.37,19.23-8,29.67a1719.4,1719.4,0,0,0,6.91,284.48l507.51-.08c21.71,0,44.8.39,63,12.76,55.88,37.93,43.4,137.35,45,196.43,2.87,104.25.39,208.39.7,312.62.07,18.68.33,38.21,8.74,54.68s28.37,29.73,44.9,22.73H2331c13.43,0,24.36,3.33,29.14-13.22a39.16,39.16,0,0,0,1.5-10.83V1825.76c0-53,4.47-108.22-8.3-160C2322.26,1539.64,2176.17,1544.69,2076,1545.92Z"/><path class="cls-8" d="M2244.84,1557.72c-51.44-14.83-112.47-14-161.5-13.4l-7.39.1L1547,1550.89c-14.31.17-30.36,1.33-39.57,12.93a33.32,33.32,0,0,0-6,12.73,1.5,1.5,0,1,0,2.91.75,30.46,30.46,0,0,1,5.45-11.61c8.41-10.57,23.65-11.64,37.27-11.8l528.94-6.47,7.38-.1c48.84-.63,109.62-1.42,160.64,13.28,59.31,17.09,94.6,51.61,107.89,105.52,10.11,41,9.36,84.61,8.64,126.8-.19,10.8-.38,22-.38,32.84V2454c0,1.34-.07,2.68-.2,4a1.49,1.49,0,0,0,1.34,1.65h.15a1.5,1.5,0,0,0,1.49-1.35,40.67,40.67,0,0,0,.22-4.29V1825.76c0-10.85.19-22,.38-32.79.72-42.38,1.47-86.21-8.72-127.57C2341.24,1610.36,2305.27,1575.13,2244.84,1557.72Z"/><path class="cls-9" d="M2094.84,1727.3c-13.65-46.83-40.6-85.12-90.31-106.62-61.67-26.67-134.48-21.92-200.27-21.92H1366c.24-1.59.48-3.16.73-4.75-10.32,4.34-22.57,4.21-27.73,14.79s.84,37.14,1.68,48.77a755.33,755.33,0,0,0,13.55,98.07c6.1,29.64,14.29,59.57,31.23,84.15,41.14,59.71,99.42,51.44,161.28,51.44h255.8c21.86,0,54.48-6.76,64.8,19.53a22.67,22.67,0,0,1,1.12,7.67c.7,22.2.86,44.42,1.56,66.62v510h98.73c34.57,0,119.31,19.12,135-18.56,5.8-13.89,5.92-29.54,5.95-44.7.24-156.48,3.56-313.1.75-469.56C2109.13,1886.38,2116.19,1800.53,2094.84,1727.3Z"/><path class="cls-8" d="M2111.94,1909.15c.44-61.7.89-125.5-15.66-182.27-15.3-52.47-45.12-87.66-91.16-107.58-53.93-23.32-115.41-22.75-174.86-22.2-8.58.08-17.44.16-26,.16H1371.45a1.5,1.5,0,0,0,0,3h432.81c8.57,0,17.44-.08,26-.16,59.15-.55,120.31-1.12,173.65,22,45.17,19.54,74.44,54.1,89.47,105.66,16.43,56.35,16,119.93,15.54,181.41-.14,18.44-.26,35.85,0,53.15,1.87,104.14,1,210.1.18,312.57-.42,51.45-.85,104.65-.93,157,0,8.38,0,17.87-1.31,26.91a1.49,1.49,0,0,0,1.27,1.69l.21,0a1.51,1.51,0,0,0,1.49-1.29c1.31-9.24,1.32-18.85,1.34-27.33.08-52.3.51-105.49.93-156.94.83-102.49,1.69-208.47-.18-312.65C2111.68,1945,2111.8,1927.57,2111.94,1909.15Z"/><path class="cls-8" d="M1920.74,1801.65a1.5,1.5,0,0,0-2.09.36c-21.84,30.78-44.93,61.3-68.61,90.69a1.5,1.5,0,0,0,.23,2.11,1.52,1.52,0,0,0,.94.33,1.5,1.5,0,0,0,1.17-.56c23.72-29.44,46.84-60,68.72-90.84A1.5,1.5,0,0,0,1920.74,1801.65Z"/><path class="cls-7" d="M2498.57,2607c-29.42-12.95-63-14.6-89.82-33.83a118.65,118.65,0,0,1-39.48-49.34c-2.87-6.67-4.27-22.27-9.78-26.11-3.65-2.55-14.3-1.41-18.75-1.85q-9.67-.95-19.33-2-76.41-8-152.28-20.74c-8.72-1.46-17.88-3.08-26.68-1.38-11.46,2.2-8.22,8.76-8.42,19.05-.55,27.21,1.6,54.42.4,81.63-1.58,35.54-8.76,71.62-1.22,106.32,1.12,5.13,2.7,10.46,6.38,14.05,3.32,3.24,7.87,4.62,12.27,5.77,40.08,10.46,84.2,9.74,125.41,11,47.18,1.48,94.55,0,141.74-1.48q60.7-2,121.38-4.09C2548.23,2663.17,2537.37,2624.06,2498.57,2607Z"/><path class="cls-8" d="M2499.9,2583.75c-29.67-13.06-63.55-14.73-90.61-34.13a119,119,0,0,1-33.74-37.58c-7.76-13.56-6.44-29-23.15-34-6.87-2.07-14.13-2-21.28-1.88L2134.88,2479c-2.86,29.69-1.21,59.4-3.6,89.05-2.36,29.25-6.27,59.13,0,88.15,1.13,5.18,2.73,10.56,6.44,14.18,3.34,3.27,7.94,4.66,12.37,5.82,40.44,10.55,84.95,9.82,126.52,11.13,47.59,1.49,95.39,0,143-1.5q61.23-2,122.45-4.12C2550,2640.44,2539.05,2601,2499.9,2583.75Z"/><g class="cls-11"><path class="cls-9" d="M2227.8,2564.82a142.9,142.9,0,0,0-18.71-12.29,220.22,220.22,0,0,0-75.26-25.86c0,35.69.1,70.63.08,106.32,0,8.77.08,17.9,4,25.76,2.81,5.68,7.4,10.24,11.91,14.69l6.49,6.42c12.41,3.58,24.92,7.18,37.8,8.14,6.09.46,12.21.32,18.32.18,26.35-.59,53.13,1.54,79.48,1-3.79-43.17-23-84.66-53.07-114.47A134.63,134.63,0,0,0,2227.8,2564.82Z"/></g><rect class="cls-7" x="2117.97" y="2450.73" width="267.04" height="54.23" rx="15.5"/><path class="cls-7" d="M2234,2613.57c-29.42-13-63-14.6-89.82-33.83a118.65,118.65,0,0,1-39.48-49.34c-2.87-6.67-4.27-22.27-9.78-26.11-3.65-2.55-14.3-1.41-18.75-1.85q-9.68-.95-19.33-2-76.41-8-152.28-20.74c-8.72-1.46-17.88-3.08-26.68-1.38-11.46,2.2-8.22,8.76-8.42,19-.55,27.21,1.6,54.42.39,81.63-1.57,35.54-8.75,71.62-1.21,106.32,1.12,5.13,2.7,10.46,6.38,14,3.32,3.24,7.87,4.62,12.27,5.77,40.08,10.46,84.2,9.74,125.41,11,47.17,1.48,94.55,0,141.74-1.48q60.69-2,121.38-4.09C2283.68,2669.76,2272.82,2630.65,2234,2613.57Z"/><path class="cls-8" d="M2235.35,2590.34c-29.67-13.06-63.56-14.73-90.61-34.13a119.16,119.16,0,0,1-33.75-37.58c-7.75-13.56-6.43-29-23.14-34-6.87-2.07-14.13-2-21.28-1.88l-196.24,2.82c-2.86,29.69-1.21,59.4-3.6,89.05-2.36,29.25-6.27,59.13,0,88.15,1.13,5.18,2.73,10.56,6.44,14.18,3.34,3.27,7.93,4.66,12.37,5.82,40.44,10.55,85,9.82,126.52,11.13,47.59,1.49,95.39,0,143-1.5q61.21-2,122.45-4.12C2285.45,2647,2274.49,2607.57,2235.35,2590.34Z"/><g class="cls-11"><path class="cls-9" d="M1963.25,2571.41a142.34,142.34,0,0,0-18.72-12.29,220.1,220.1,0,0,0-75.25-25.86c3.25.49-1.32,53.24-1.72,58.37-1.8,22.85-4.55,46.83-1.53,69.65.62,4.69,1.66,9.59,4.84,13.09,6.65,7.31,20.58,7.78,29.6,9.52q19.08,3.69,38.35,6.31c7.16,1,88.7,7.59,88.49,5.52-3.78-43.17-23-84.66-53.06-114.47A134.63,134.63,0,0,0,1963.25,2571.41Z"/></g><rect class="cls-7" x="1853.41" y="2457.32" width="267.04" height="54.23" rx="15.5"/><path class="cls-12" d="M1952,1183.59c-10-16-21.44-33.55-39.72-38-14.38-3.53-29.5,2.2-42,10.14-31.26,19.86-51.67,52.7-69,85.4-18.7,35.17-35.61,74-30.64,113.49,1.67,13.3,5.79,26.18,10.78,38.61,35.4,88.27,118.27,155.8,211.86,172.65,115.92,20.87,128.72-93.89,93.48-176C2054,1313.76,1994.81,1252.27,1952,1183.59Z"/><path class="cls-13" d="M2035.86,1264c-4.45-6.21-11.89-11.73-16.09-16.87-7-8.63-14.54-17.68-20-27.37-42.15-74.34-82.8-149.08-129.65-220.34-19.61-25.35-41.79-35.85-73.82-31-43.93,6.66-87.38,28.35-109.11,68.73-26.42,49.08-8.54,106.63,14.8,153.94,30.45,61.72,74.75,121,115.57,176.36,7.47,10.13,15.18,21.18,22,31.68,5.81,9,10.47,19.21,23.67,17.39,6.76-.93,12.52-5.18,18-9.19,26.71-19.45,56.72-40.67,84-61.75,16-12.35,77.79-49.41,74.19-73.72A18.39,18.39,0,0,0,2035.86,1264Z"/><path class="cls-14" d="M2038.92,1278.51a1.49,1.49,0,0,0-1.9.94c-6.28,18.54-40.12,42-60.34,56-5.12,3.55-9.53,6.61-12.42,8.85-20.53,15.89-42.49,31.75-63.73,47.09-6.87,5-13.64,9.85-20.2,14.63l-.24.18c-5.32,3.87-10.83,7.88-17.11,8.75-10.83,1.48-15.24-5.59-20.36-13.79-.61-1-1.22-2-1.85-2.93-6.53-10.08-14.14-21.06-22-31.76l-4.3-5.82c-21.57-29.25-43.89-59.48-64.5-90.6a1.5,1.5,0,1,0-2.5,1.66c20.66,31.18,43,61.44,64.59,90.72l4.29,5.82c7.86,10.65,15.44,21.58,21.93,31.61.62.95,1.22,1.92,1.83,2.89,4.73,7.58,9.61,15.4,20.09,15.4a24.36,24.36,0,0,0,3.21-.23c7-1,12.85-5.2,18.48-9.3l.24-.17c6.56-4.78,13.32-9.66,20.19-14.62,21.25-15.36,43.24-31.24,63.8-47.16,2.83-2.19,7.22-5.23,12.3-8.76,20.52-14.24,54.87-38.07,61.47-57.55A1.51,1.51,0,0,0,2038.92,1278.51Z"/><path class="cls-8" d="M1741.76,543.16a3.36,3.36,0,0,0-2.29-.64l-26-.87c-26.18-.87-45.49-10.81-69-22.77-22.12-11.24-44.83-22.66-69.81-25.55-6.48-.75-13.33-.85-19.19,2-4.6,2.23-8.18,6.08-11.6,9.89-6.5,7.25-18.59,17.11-22.27,26.11s-1.44,24-1.33,33.74a396.31,396.31,0,0,0,7.13,72.08c1.72,8.74,5.68,17.26,9.51,25.27,2.7,5.63,5.52,12.14,8.79,18.53,8,15.68,18.79,30.59,37.12,29.76,10.91-.5,28.38-1,34.63-11.83,6.38-11.1,2.63-33.68,3.07-46.19.43-12.31-.4-45.77,10.25-53.45,8.82-6.36,31.49-3.11,42.39-4.08,27.25-2.42,72.74-13.86,69.41-49.86A3.23,3.23,0,0,0,1741.76,543.16Z"/><path class="cls-14" d="M1778.62,450.25c-20.74-6-42.54-4.22-63.64-1.4-17.13,2.29-33.1,2.06-50.23,6.45-11.9,3.05-27.25.85-39.28-1-15.14-2.33-30-6.19-45.27-7.82s-31.16-.91-45,5.56c-2.5,1.16-5,2.58-6.54,4.86s-1.92,5-2.28,7.7q-3.54,26.79-5.47,53.78c-1,14.66-.64,29.41-.47,44.09a9.13,9.13,0,0,0,.95,4.81c1.19,1.89,3.4,2.52,5.39,3.18,2.59.86,5.1,1.9,7.68,2.76A546.42,546.42,0,0,0,1593,589c42.28,8.94,91.18,17.32,134.34,11a124.78,124.78,0,0,0,31.46-8.7c27.52-11.82,53.71-37.62,61.68-67A60.2,60.2,0,0,0,1778.62,450.25Z"/><path class="cls-15" d="M1764.87,634.46q-.16-13.22-.34-26.42c-.16-12.15,3.44-28.41-11.56-33-6.06-1.87-12.57-1.11-18.9-.61a219.35,219.35,0,0,1-75-7.11c-7.59-2.09-16.35-4.41-22.81.08a18.24,18.24,0,0,0-4.7,5.08c-10.23,15.47-12.43,39.63-15.34,57.57-1.38,8.52-1.86,17.2-4,25.58-.7,2.78-1.47,7.68-4,9.44-3.05,2.09-6.47.46-7.73-2.62-4.87-11.92-6.55-22.82-17.93-30.59-13.26-9.05-31.36-9.88-44,1-17.71,15.2-7.48,46.54,5.85,61,4.37,4.71,9.51,8.64,14,13.24,9.09,9.29,8.92,16,7.7,28.06l-.3,3c-1.83,18.77-3.18,37.61-4.8,56.4q-5.09,59.37-10.19,118.73c-.64,7.48-1.29,15-1.7,22.47-.39,7.11.12,10.76,3.88,16.82,6.1,9.83,15.41,17.45,25.62,22.71,12.56,6.47,26.56,9.65,40.52,11.82,15.84,2.47,32.45,3.66,47.56-1.71,12.54-4.46,23.11-13.11,33.09-21.93,2.22-2,4.48-4,5.74-6.7,1.52-3.25,1.35-7,1.11-10.61-3.1-44.74-14.86-88.53-18.47-133.24a17.59,17.59,0,0,1,.49-7.41c2.72-7.55,13.08-3.45,18.84-3a154.13,154.13,0,0,0,23.83.22c9.19-.62,19-2.39,25.53-8.88,7.52-7.47,8.69-19.06,9.12-29.66,1.33-32.35-.76-64.6-.67-97C1765.28,656.21,1765,645.33,1764.87,634.46Z"/><path class="cls-16" d="M1837.24,972.77c-42-16.23-133.24-26.65-131.75-87.46.06-2.47.26-5-.63-7.33-1.57-4-6-6.06-10-7.57-34.68-12.88-72.31-14.77-109.26-16.53-14.35-.68-28.85-1.35-43,1.23-2.34.43-4.94,1.14-6.11,3.2a8.58,8.58,0,0,0-.78,3.92l-.6,14.84c-.16,3.85.72,9.65-.75,13.24-2.23,5.43-11.59,8.42-16.81,9.39-19.27,3.56-38.56,7.49-57.92,10.95q-62.3,11.11-124.57,22.36c-7.77,1.4-15.68,2.84-22.63,6.58-40.54,21.8-41.17,112.51-41,150.83.24,52,8.51,103.4,13.9,155,.42,4.12.84,8.24,1.23,12.36,10.42,110.89,26.23,220.86,33,332h96c44.27,0,88.29,3.74,132.47,3.74h293.86c31.59,0,22-32.32,23.37-58.49q2.17-41.87,3.79-83.75.2-5,.37-9.94,3.57-96.22,4.18-192.54c0-.28,0-.55,0-.82q.54-85-1.22-170C1871.58,1038.93,1881.84,990,1837.24,972.77Z"/><path class="cls-14" d="M1573.8,648.9c-8.86-7.11-19.36-7.67-28.81-1.56a1.5,1.5,0,0,0,1.63,2.52c8.29-5.37,17.51-4.86,25.3,1.38,10,8,14.64,23,10.53,34.13a1.5,1.5,0,0,0,.88,1.93,1.37,1.37,0,0,0,.52.1,1.52,1.52,0,0,0,1.41-1C1589.87,674,1585,657.83,1573.8,648.9Z"/><ellipse class="cls-12" cx="1666.23" cy="683.22" rx="41.33" ry="41.71" transform="translate(946.06 2333.82) rotate(-88.72)"/><path class="cls-14" d="M1741.53,739.34c-13.44-.87-30.61-5.9-38.5-17.4a1.5,1.5,0,1,0-2.47,1.7c8.5,12.38,26.63,17.77,40.77,18.69h.1a1.5,1.5,0,0,0,.1-3Z"/><path class="cls-12" d="M1774,693.45a4.58,4.58,0,0,0-2-.28,52,52,0,0,1-10.88-.62c-9.88-2-13.67-10.41-15.18-19.41l3.54,45a79,79,0,0,0,20.39-12.22c2.93-2.42,5.92-5.57,5.76-9.38A3.49,3.49,0,0,0,1774,693.45Z"/><path class="cls-12" d="M1746,673.14l-1-13.06A92.55,92.55,0,0,0,1746,673.14Z"/><path class="cls-14" d="M1774.6,692.1a5.91,5.91,0,0,0-2.59-.43h-1a45.88,45.88,0,0,1-9.54-.6c-12.65-2.6-14.69-16.45-15-31a1.48,1.48,0,0,0-1.54-1.47,1.5,1.5,0,0,0-1.46,1.53c.22,9.89.67,30.46,17.4,33.91a48.49,48.49,0,0,0,10.17.66h1a3.65,3.65,0,0,1,1.3.14,2.14,2.14,0,0,1,.82,1.81c.14,3.34-2.91,6.26-5.22,8.17a77.38,77.38,0,0,1-20,12,1.5,1.5,0,0,0,.57,2.89,1.44,1.44,0,0,0,.57-.11,80.27,80.27,0,0,0,20.77-12.45c2.8-2.31,6.5-5.93,6.31-10.6A4.86,4.86,0,0,0,1774.6,692.1Z"/><path class="cls-7" d="M1658.7,933.38c-10.08,5.56-9.18,15.16-10.28,25.78-7.06,68.54-21,136.18-16.34,205.36a588.26,588.26,0,0,0,49.29,199.24l.06.14c12,26.87,20.61-24,22-31a683.67,683.67,0,0,0,12.16-91c6.09-92.37-10.53-183-29-273.08C1683.44,953.13,1683.21,919.86,1658.7,933.38Z"/><path class="cls-14" d="M1690.43,891.21c-1.31-1.37-3.59-1.46-4.84-2.89-.85-1-1-2.42-2-3.3-1.12-1-2.85-.95-4.38-.8-18.2,1.89-42-2.27-41,22.41.2,5.23,1.77,10.3,3.33,15.3q3.85,12.42,7.73,24.86a4.35,4.35,0,0,0,1.42,2.45,4.4,4.4,0,0,0,2.9.39l22.53-2.23a4.32,4.32,0,0,0,4.85-3.57l6.24-19c3.24-9.89,6.52-20.32,4.51-30.54A6,6,0,0,0,1690.43,891.21Z"/><path class="cls-13" d="M1700.79,853.27q-7.83,0-15.65.56c-4,.31-9.16.07-12.89,1.58-6.45,3.22-3.77,15.45-3.16,21.17,1.16,10.77,2.46,21.53,3.7,32.29a15.4,15.4,0,0,0,1.45,5.78c5.1,9.15,21.9,4.9,29.9,4.08,13.62-1.41,18.88-.79,19.22-15.05C1723.73,887.59,1724.1,853.41,1700.79,853.27Z"/><path class="cls-13" d="M1665.4,856.16c-2.45-1.68-5.52-2.08-8.47-2.42q-34.64-4-69.52-5.24-16.77-.6-33.57-.54c-5.76,0-20.14-2.52-25.09,1.43-3,2.38-3.61,9.52-4.47,12.93-3.16,12.51-4.72,26-6.13,38.85h.09c8.78-.86,18.76,3.33,27.43,5q17.05,3.32,34.23,6.1c10.38,1.69,66.62,15.29,70.46,5C1654,907.39,1675.67,863.19,1665.4,856.16Z"/><path class="cls-14" d="M1726.28,653.1c-3.63-.14-6.72,3.43-6.9,8s2.62,8.36,6.26,8.5,6.72-3.43,6.9-8S1729.92,653.24,1726.28,653.1Z"/><ellipse class="cls-14" cx="1765.31" cy="662.88" rx="8.25" ry="5.18" transform="translate(1033.71 2400.84) rotate(-87.75)"/><path class="cls-17" d="M1702.45,638.92l32.08,0C1723.72,634.94,1713.18,633.72,1702.45,638.92Z"/><path class="cls-14" d="M1735.92,635.19c-13.52-5-24.71-5-35.21.13a4,4,0,1,0,3.49,7.2c8.52-4.13,17.45-4.08,28.94.17a4,4,0,0,0,2.78-7.5Z"/><path class="cls-14" d="M1770.23,633.4h0a4.22,4.22,0,0,0-.45-.18,8.37,8.37,0,0,0-3.74-.34l-1.5.1c-2.79.18-6.27.4-9.13,2.15a4,4,0,0,0,2.1,7.41,4,4,0,0,0,2.08-.59c1.17-.71,3.54-.86,5.45-1l1.7-.12.49,0h0a5.46,5.46,0,0,0,4.57.25,4,4,0,0,0-1.58-7.67Z"/><path class="cls-14" d="M1697.86,800.4c-20.84-4.68-41.15-13.43-60.8-21.88a1.5,1.5,0,1,0-1.19,2.75c18.85,8.12,40.22,17.32,61.33,22.06l.33,0a1.5,1.5,0,0,0,.33-3Z"/><path class="cls-14" d="M1668.17,864.43a1.49,1.49,0,0,0-1.62,1.37c-1,12-9.4,31.57-14.41,43.28-1.42,3.33-2.55,6-3.19,7.66-.5,1.35-3.8,4.25-23.52,2-12.68-1.42-27.22-4.38-36.85-6.34-3.75-.76-6.71-1.36-8.44-1.64-11.37-1.84-22.87-3.89-34.19-6.09-2.66-.52-5.41-1.27-8.33-2.06-6.5-1.77-13.23-3.59-19.59-3l.12,1.5h0l.23,1.48c5.76-.56,12.21,1.19,18.45,2.88,3,.81,5.78,1.58,8.55,2.11,11.35,2.21,22.88,4.26,34.28,6.11,1.68.27,4.61.87,8.32,1.62,21.2,4.31,38.46,7.2,49.7,7.2,7.9,0,12.83-1.42,14.08-4.78.61-1.64,1.73-4.24,3.14-7.53,5.08-11.87,13.59-31.74,14.64-44.21A1.51,1.51,0,0,0,1668.17,864.43Z"/><path class="cls-14" d="M1713.2,916.21c-1.79.3-3.9.5-6.33.74l-2.89.28c-1.27.14-2.76.35-4.34.58-8.07,1.17-20.28,2.94-24.09-3.89a14.16,14.16,0,0,1-1.27-5.22c-.34-3-.69-5.92-1-8.88-.9-7.67-1.83-15.59-2.67-23.4-.08-.75-.2-1.62-.32-2.57a69,69,0,0,1-.74-7.94,1.5,1.5,0,1,0-3,0,71.1,71.1,0,0,0,.76,8.3c.13.92.24,1.76.32,2.49.84,7.82,1.77,15.76,2.67,23.43.34,3,.69,5.92,1,8.88a16.63,16.63,0,0,0,1.63,6.33c2.88,5.16,8.84,6.54,15.07,6.54a85.06,85.06,0,0,0,12.07-1.14c1.55-.23,3-.44,4.22-.56l2.86-.29c2.5-.24,4.65-.44,6.55-.76a1.49,1.49,0,0,0,1.23-1.72A1.51,1.51,0,0,0,1713.2,916.21Z"/><path class="cls-14" d="M1874.1,1057.84c.86-33.6,1.83-71.69-36.32-86.46-8.72-3.38-19.61-6.52-31.15-9.85-30.9-8.91-69.37-20-88-42.56a1.5,1.5,0,1,0-2.31,1.92c19.26,23.26,58.22,34.5,89.52,43.52,11.47,3.31,22.3,6.44,30.89,9.76,36.19,14,35.29,49.39,34.41,83.6-.17,6.72-.34,13.67-.21,20.2,1.16,56.38,1.57,113.56,1.22,170v.82c-.41,63.92-1.82,128.69-4.18,192.5q-.18,5-.37,9.93c-1.07,27.74-2.35,55.91-3.79,83.73-.09,1.85-.14,3.82-.14,6a1.5,1.5,0,0,0,1.5,1.5h0a1.5,1.5,0,0,0,1.5-1.5c0-2.14,0-4,.14-5.85,1.44-27.83,2.72-56,3.79-83.77.12-3.32.25-6.63.37-9.94,2.36-63.84,3.77-128.64,4.18-192.59V1248c.35-56.42-.06-113.64-1.22-170C1873.76,1071.44,1873.93,1064.84,1874.1,1057.84Z"/><path class="cls-14" d="M1687.24,1369.8c-1-.6-2.52-2.22-4.45-6.54l0-.11a583.27,583.27,0,0,1-49.16-198.73c-3.38-50.28,3.21-100.7,9.58-149.47,2.38-18.21,4.84-37,6.75-55.63.16-1.56.28-3.09.4-4.59a51,51,0,0,1,1.57-10.82A1.5,1.5,0,1,0,1649,943a52.71,52.71,0,0,0-1.7,11.47c-.12,1.48-.23,3-.39,4.51-1.91,18.56-4.37,37.37-6.75,55.55-6.38,48.91-13,99.49-9.59,150.06A586.26,586.26,0,0,0,1680,1364.37l.06.14c1.81,4.06,3.64,6.63,5.6,7.84a1.52,1.52,0,0,0,.79.22,1.5,1.5,0,0,0,.79-2.77Z"/><path class="cls-17" d="M1705.57,851.74l-26,.85c-2.71.09-6.09.2-8.85,2a9.07,9.07,0,0,0-2.66,2.72,5.82,5.82,0,0,0-1.23-2c-2.14-2.29-5.89-2.66-8.62-2.93l-1.09-.11c-23-2.66-46.46-4.43-69.64-5.25-11.11-.39-22.43-.58-33.62-.54-1.36,0-3.25-.15-5.44-.32-5.43-.42-12.2-.94-16.91.34a1.5,1.5,0,1,0,.78,2.9c4.21-1.15,10.7-.65,15.9-.24,2.25.17,4.17.29,5.68.32,11.15,0,22.43.15,33.51.54,23.1.82,46.45,2.57,69.39,5.23l1.14.11c2.39.24,5.37.54,6.73,2a5.38,5.38,0,0,1,1,3.16,8.73,8.73,0,0,0,1.44,4.44,1.49,1.49,0,0,0,1.19.59,1.42,1.42,0,0,0,.64-.14,1.49,1.49,0,0,0,.82-1.7,6.33,6.33,0,0,1,2.63-6.59c2.05-1.34,4.84-1.43,7.3-1.51l26-.85a1.5,1.5,0,0,0-.1-3Z"/><path class="cls-9" d="M2963.54,1561c-28.72,5.41-62.69,10.78-98.87,17.37-120.4,21.93-265.35,57.4-323.39,153.32-27,44.67-22.11,108.74-27.51,160.38q-5.11,48.75-9.89,97.52-5.24,53.4-10.09,106.84-8.82,97.16-16.36,194.38c-2.09,26.94-4.8,53.86-7,80.8-1.53,18.52-3,37.05-4.18,55.58-.44,6.74-5.66,38.34-.48,42.66,1.39,1.16,3.27,1.31,5,1.42,9.52.61,153.32,11.68,153.53,10.47,21-121.94,52.85-249.27,82.8-372.2,11-45.09,21.95-90.2,32.25-135.49,4.41-19.39,5.68-46.07,13.94-63.81,7.12-15.33,25-24.54,39-33.6,5.64-3.66,11.72-6.6,18.3-7.11l165.75-12.9c43.61-3.4,90.33-.92,131.37-17.53,41.85-16.95,82-41.77,118.82-68.84,11.75-8.65,23.3-17.78,33.18-28.79,13.5-15,23.63-33.32,30.93-52.66,21.44-56.85,18.68-114.81-2-171C3282.2,1500.15,2991.19,1555.79,2963.54,1561Z"/><path class="cls-8" d="M2638,2642.34c-11.8-50.72-23-101.62-34.48-152.42a782.11,782.11,0,0,1-153.67-12.37c-2.51-.45-9.77,74.37-10.43,80.65l-86.93-13.68c-3-.47-6.08-.93-9,0a18.89,18.89,0,0,0-5.72,3.6,200.45,200.45,0,0,0-46.54,55.43c-9.48,16.59-7.63,32.43-5.65,50.84.76,7.09,2.84,38,12.94,38.34l89.67,3.38c50.27,1.89,100.6,3.79,150.9,2,26-.9,51.72-3.95,77.64-6,25.68-2,30.46-10.55,24.34-36.58Q2639.59,2649,2638,2642.34Z"/><path class="cls-7" d="M2636.94,2613.77q-1.56-23.13-3.13-46.27l-6.8-100.44c-50.72,4-101.05-6-151.49-9.92-7.42-.58-24.56-5.09-30.54.73-4.89,4.76-4.16,20.39-4.91,26.9-.35,3-5.14,45-4.78,45.09l-86.93-13.68c-3-.47-6.08-.93-9,0a19.11,19.11,0,0,0-5.72,3.61,200.75,200.75,0,0,0-46.55,55.42c-9.47,16.59-7.63,32.44-5.64,50.84.76,7.09,2.83,38,12.94,38.34l89.67,3.38c50.27,1.9,100.6,3.79,150.9,2.05,26-.89,51.72-3.94,77.64-6,24-1.89,26.85-12.5,25.34-34.76Q2637.46,2621.44,2636.94,2613.77Z"/><path class="cls-9" d="M3337.9,1601.07c-23.1-29-34.07-40.48-69.6-37.79-37.62,2.85-75.24,5.86-112.86,8.79-120.81,9.4-301.52,5.25-353.08,151-16.85,47.67-22.75,103.2-24.43,155.73-5.62,175.82-10.06,352.36-8.73,528.14.05,6.64-2.79,38.07,2.5,41.77,1.41,1,3.23.95,5,.88,9.2-.37,148.39-4.1,148.5-5.31,16.13-166.11,45.54-331.17,69.77-496.12,3.18-21.63,6.65-44.07,18.27-62.08,18.53-28.71,51.72-34.14,82-34.16,99.24-.1,285.36-40.46,270.78-185.94C3363.67,1643,3351.62,1618.31,3337.9,1601.07Z"/><path class="cls-8" d="M3243.34,1563.69q-25.23,1.95-50.45,3.94l-37.57,2.94c-11.94.93-24.32,1.72-37.42,2.55-59.26,3.77-126.43,8-185,27.87-68,23-111.18,62.8-132,121.61-14.45,40.85-22.47,91.93-24.52,156.17-5.35,167.19-10.1,346.9-8.73,528.21,0,1.3-.1,3.64-.23,6.59-.36,7.8-.91,19.59,0,27.54a1.5,1.5,0,0,0,1.49,1.32h.18a1.5,1.5,0,0,0,1.31-1.67c-.92-7.7-.38-19.34,0-27,.14-3,.25-5.37.24-6.76-1.37-181.25,3.38-360.92,8.73-528.08,2-63.93,10-114.72,24.35-155.27,20.47-57.88,63-97.06,130.1-119.77,58.18-19.7,125.14-24,184.21-27.71,13.11-.84,25.5-1.63,37.46-2.56q18.79-1.45,37.58-2.94,25.22-2,50.44-3.94a1.5,1.5,0,0,0-.23-3Z"/><path class="cls-8" d="M2966.38,2608.11c-15.86-49.44-31.11-99.11-46.65-148.65a781.84,781.84,0,0,1-154.1,1.94c-2.53-.22-3.73,75-3.88,81.31l-87.7-5.56c-3-.19-6.14-.36-8.93.87a19.28,19.28,0,0,0-5.4,4.13,204.09,204.09,0,0,0-41.91,59.53c-8.1,17.41-5,33-1.52,51.17,1.33,7,5.89,37.56,16,37l89.61-5c50.23-2.77,100.52-5.56,150.5-12,25.84-3.31,51.2-8.73,76.86-13.17,25.41-4.4,29.49-13.35,21.3-38.7Q2968.45,2614.58,2966.38,2608.11Z"/><path class="cls-7" d="M2963,2579.74q-3.42-22.9-6.85-45.81-7.44-49.71-14.87-99.43c-50.22,8.65-101.17,3.37-151.73,4.18-7.44.12-24.88-2.78-30.37,3.57-4.48,5.19-2.49,20.7-2.72,27.25-.1,3-1.48,45.34-1.12,45.37l-87.71-5.56c-3-.19-6.13-.36-8.92.87a19.34,19.34,0,0,0-5.41,4.12,204.11,204.11,0,0,0-41.9,59.54c-8.1,17.41-5,33-1.52,51.17,1.33,7,5.89,37.56,16,37l89.6-5c50.24-2.78,100.53-5.56,150.5-12,25.85-3.31,51.21-8.73,76.86-13.17,23.77-4.11,25.74-15,22.45-37Z"/><path class="cls-14" d="M3235.51,463c-7.39-8.76-15.48-21.32-27.55-21.74-14.57-.5-28.5.43-42.53,4.75-12.64,3.9-24.86,10-34.3,19.23-30.44,29.89-26.27,87.82.77,118.23a23.24,23.24,0,0,0,4.91,4.44c3.67,2.3,8.21,2.7,12.54,2.52,22.12-.9,41.2-14.93,57.89-29.69.77-.68,1.54-1.36,2.3-2,12.17-10.93,24.07-22.48,32.71-36.37,5.42-8.7,9.56-18.71,8.73-28.92C3250,481.9,3243,471.85,3235.51,463Z"/><path class="cls-14" d="M2920.22,682.82q-3-2.62-5.85-5.4C2915.43,680.36,2917.25,682.75,2920.22,682.82Z"/><path class="cls-14" d="M2904.88,511.53c-7.4,0-13.12,4-17.56,9.75-7.34,9.49-11.19,23.79-13.33,33.09-10.52,45.72,7.69,91.4,40.38,123a23.17,23.17,0,0,1-1.18-5.53c-1.88-19.12-3.76-38.4-1.75-57.5,1.74-16.6,6.38-32.76,9.11-49.23,1.86-11.21,6.74-39.78-2.3-49.19C2917.2,514.87,2906.81,511.52,2904.88,511.53Z"/><path class="cls-14" d="M3013.85,495.36c-37.9,3.56-76.85,11.54-114.92,6.45-4.49-.6-9.24-1.37-13.48.54-7.92,3.54-9.13,20.54-7.26,27.69,6.06,23.09,26.59,38.12,37.48,59,4.14,8,6.86,16.71,11.27,24.5,5.28,9.31,12.94,15.67,20.78,22.42,16.26,14,34.5,25.44,50.29,40,13.56,12.51,28.24,29.82,31.56,49.33,2.5,14.64-8.89,36.8,4.21,47.57a11.37,11.37,0,0,0,3.71,1.78c9.31,3.13,13.12,5.68,22.07,0,28.7-18.3,54.61-50,73.36-78.92A200.59,200.59,0,0,0,3151.68,659a170.52,170.52,0,0,0,7.37-24.17c5.38-24,4.56-49.35-3.79-72C3132.71,501.77,3072.56,489.84,3013.85,495.36Z"/><path class="cls-12" d="M2459.28,993.2c-12.56-15-27.81-27.76-41.82-41.33q-26.3-25.49-52.08-51.49c-1.68-1.69-3.36-3.39-4.88-5.24a96.15,96.15,0,0,1-6.41-9.32,217,217,0,0,0-20-26.54c-3-3.36-5.8-3.4-9.43-.24-3.25,2.83-2.95,6.53-1.87,10.31a164,164,0,0,0,6,17.28c1.36,3.32,7.24,11.67,5.59,14.92-.36.71-5.3-2.43-5.67-2.8-16.08-16.29-29.27-35.4-46.14-50.87-3.71-3.4-7.79-6.73-12.7-7.85-3.87-.88-7.9-.33-11.84.23,4.81,8.83,10.4,17.48,15,26.34a237.21,237.21,0,0,0,16.41,28c-5.81-8.3-12.3-16.08-18.73-23.9-4.79-5.82-8.64-12.78-14.26-17.85a21.53,21.53,0,0,0-9.29-5c-1.18-.29-9-1.73-8.28.37,3.83,11.43,7.54,24.15,13.2,34.7,6.24,11.63,12.84,23.08,19.26,34.61l-28.5-33.31c-4-4.7-8.15-9.49-13.57-12.43s-12.48-3.67-17.64-.18l40.32,73.11c-1.83-3-4.79-5-7.67-7L2228,926.64a24.68,24.68,0,0,0-4.93-2.83c-4.4-1.68-9.38-.69-13.85.9.32-.12,32.49,40,36.61,43.75q39.28,35.79,79.85,70.11c24.08,20.38,49,40.65,78.21,52.43,16.59,6.68,29,3.91,45.36-1.77,11.9-4.11,23.2-11.33,29.92-22.09a41.89,41.89,0,0,0,4.27-9.18,42.46,42.46,0,0,0,1.55-20C2482.09,1020.87,2470,1006,2459.28,993.2Z"/><path class="cls-7" d="M2895.13,954.67l-243.49,174.6Q2538,1037.62,2429.85,939.43c-3.83-3.49-7.93-7.11-13-8.11-8.71-1.71-16.72,4.73-23.24,10.76q-42.79,39.61-83.46,81.44c-2,2.11-4.16,4.32-5.09,7.11-2.28,6.77,3,13.54,7.93,18.73q79,83.42,160.05,164.87,40.92,41.14,82.35,81.77,20.72,20.32,41.55,40.51c13.72,13.29,18.62,22.15,39,18.61,13.72-2.38,26.56-8.66,38.93-14.8q30.38-15,60.71-30.19,87.18-43.58,173.33-89.17,16.21-8.57,32.39-17.21,25.78-13.77,51.49-27.72c11.23-6.11,20.19-10.79,26.11-22.31,14.58-28.38,27.13-58,31.54-89.84.28-2.06.54-4.13.76-6.2,4.08-37.58-.33-86.67-21.31-119.39C3003.39,897,2923,934.68,2895.13,954.67Z"/><path class="cls-14" d="M2918.77,938.88a196.2,196.2,0,0,0-24.51,14.57l-242.57,173.93c-75.1-60.59-149.39-124.2-220.83-189.06-3.61-3.29-8.11-7.37-13.73-8.47-.5-.1-1-.18-1.53-.23a1.5,1.5,0,0,0-.3,3c.42,0,.83.1,1.25.18,4.81,1,8.78,4.56,12.29,7.75,71.77,65.16,146.41,129,221.86,189.9l.89.71L2896,955.88a192,192,0,0,1,24.12-14.32,1.5,1.5,0,1,0-1.36-2.68Z"/><path class="cls-15" d="M3074.57,740.62c-3.22-13.43-2.68-19.27,6.28-29.43,11.39-12.91,21.91-30.43,20.29-48.8-1.47-16.76-13.63-31.77-31.8-28.44a27.65,27.65,0,0,0-16.82,9.32,63.29,63.29,0,0,0-10.86,17.86c-.57,1.34-1.23,2.81-2.58,3.36a4.37,4.37,0,0,1-2.13.19c-7.53-.85-9.79-18.39-11.95-24.7-1.53-4.47-3.1-9-6-12.77-4.44-5.75-11.4-8.85-18.05-11.77q-50.09-22-98.85-46.8c-11,57.51-7,118.16,1.4,175.77,1.29,8.88,3.28,17.79,7.5,25.71s10.92,14.81,19.4,17.75c5,1.72,10.29,2,15.54,2.1A184.94,184.94,0,0,0,2975,788c5.09,14.54,5.52,29.44,6.91,44.9q2.29,25.38,4.58,50.78,1.67,18.39,3.32,36.78c.93,10.34-2.89,27.68,5.44,34.44a54.14,54.14,0,0,0,22.54,10.38c11.49,2.43,23.45,1.2,35-1,12.36-2.35,24.61-6,35.86-11.65a76.37,76.37,0,0,0,11.55-6.86,36.35,36.35,0,0,0,3.46-2.95c1-1,11.57-9.19,11.71-7.7-1.38-14.66-4.43-29.1-7.48-43.5C3097.24,841.21,3086.57,790.76,3074.57,740.62Z"/><path class="cls-18" d="M3354.87,1634.15q-2.13-41.52-4.27-83-6.33-123.58-12.68-247.18-3.66-71.07-7.3-142.14-3.49-68-7.15-136c-1.82-33.1-3.22-83.39-31-106.79-26.72-22.52-75.29-25.74-108.15-32.34-13.44-2.7-30.49-2.52-41.84-11.23-6.6-5.06-7-11.87-11.38-18.06-5.33-7.55-21.73-5.08-30-4.33l-125.9,11.42c-11.47,1-15.54,3.51-17.26,14.76-1.26,8.29-1.82,17.14-8.25,23.24-4.89,4.64-12,6.71-17.66,10.31-9.19,5.9-16.74,14.19-23,23-31.56,44.26-44.29,91.86-48.8,141.2-4.57,49.91-.71,101.6.58,153.41,2.64,105.27-.73,213.24-46.18,310.33-13.86,29.61-28.48,28.11,3.34,50.57,17.55,12.39,39.65,19.59,60.06,25.5,42.19,12.22,86.33,15.74,129.71,21.27,69.6,8.88,138.67,21.67,208.45,29.21,35.54,3.84,70.91,5.15,106.59,6.5C3350.33,1674.81,3356.41,1664.28,3354.87,1634.15Z"/><path class="cls-14" d="M2921.78,918.82a101.34,101.34,0,0,0-14,16.08c-28.25,39.62-43.85,84.72-49.08,141.93-3.5,38.3-2,78.41-.61,117.19.44,11.92.89,24.25,1.19,36.39q.18,6.78.31,13.55a1.49,1.49,0,0,0,1.5,1.47h0a1.5,1.5,0,0,0,1.47-1.53c-.09-4.52-.19-9.05-.31-13.56-.3-12.16-.75-24.5-1.19-36.43-1.42-38.69-2.88-78.69.6-116.8,5.18-56.66,20.6-101.3,48.53-140.47a97.73,97.73,0,0,1,13.55-15.6,1.5,1.5,0,0,0-2-2.22Z"/><ellipse class="cls-12" cx="2985.68" cy="685.51" rx="35.77" ry="37.87" transform="translate(2290.15 3668.87) rotate(-89.81)"/><path class="cls-12" d="M2910.62,682.72c-.39,2.93-1.17,5.94-3.13,8.15-3.73,4.21-9.9,4.16-15,5.09-6.95,1.28-1.71,6.74,1.4,9.22,5.29,4.21,12,6.19,18.39,8.05l-.34-42.18C2912.08,674.85,2911.12,678.94,2910.62,682.72Z"/><path class="cls-14" d="M2912.7,711.79c-6.29-1.83-12.8-3.74-17.87-7.78-2.94-2.34-4.47-4.64-4.25-5.52.08-.33.7-.78,2.18-1,1-.18,2-.32,3.08-.47,4.41-.62,9.42-1.32,12.77-5.1,2.44-2.76,3.16-6.43,3.5-9,.13-1,.31-2.1.48-3.17a44.66,44.66,0,0,0,.85-8.75,1.48,1.48,0,0,0-1.56-1.44,1.51,1.51,0,0,0-1.44,1.56,42.08,42.08,0,0,1-.81,8.15c-.18,1.1-.36,2.19-.5,3.26-.45,3.39-1.33,5.73-2.77,7.36-2.62,3-6.84,3.54-10.93,4.11-1.06.15-2.16.31-3.21.5-2.6.48-4.13,1.58-4.55,3.27-.8,3.18,3,6.75,5.29,8.59,5.54,4.42,12.63,6.49,18.9,8.32a1.23,1.23,0,0,0,.42.07,1.51,1.51,0,0,0,.42-3Z"/><path class="cls-14" d="M2946.51,730.27a1.5,1.5,0,0,0-2.11.26c-6.46,8.22-13.4,12.24-24.74,14.32a1.5,1.5,0,0,0,.27,3l.27,0c12-2.21,19.68-6.67,26.56-15.43A1.51,1.51,0,0,0,2946.51,730.27Z"/><path class="cls-14" d="M3080.46,650.76h0c-5.76,0-13.07.74-18.59,6a23.11,23.11,0,0,0-6.63,18.71c1.07,10.2,8.86,18.12,18.53,18.84h.11a1.5,1.5,0,0,0,.11-3c-8.22-.61-14.85-7.41-15.77-16.17A20.33,20.33,0,0,1,3064,659c4.73-4.55,11-5.19,16.52-5.21a1.5,1.5,0,0,0,0-3Z"/><path class="cls-14" d="M2937.81,656.3c-4,.36-6.82,4.68-6.37,9.64s4,8.7,8,8.35,6.81-4.68,6.36-9.64S2941.77,656,2937.81,656.3Z"/><path class="cls-14" d="M2894.86,660.18c-3.12.28-5.29,4.53-4.84,9.5s3.34,8.76,6.46,8.48,5.29-4.54,4.84-9.5S2898,659.89,2894.86,660.18Z"/><path class="cls-14" d="M2925.72,626.1a4,4,0,0,0,.92,7.95c13.43-1.57,23,.71,31.13,7.38a4,4,0,0,0,5.63-.54,4,4,0,0,0-.54-5.63C2953.08,627.2,2941.28,624.29,2925.72,626.1Z"/><path class="cls-14" d="M2900.65,629.33c-3.54-.41-7.05,1-9.86,2.06l-1.56.6a8.92,8.92,0,0,0-3.41,2,5.33,5.33,0,0,0-.4.42,4,4,0,0,0,1.6,7.66h.12a5.6,5.6,0,0,0,4.15-2.23.27.27,0,0,0,.07-.08l.61-.24c.55-.2,1.13-.42,1.73-.66,2.09-.82,4.46-1.74,6-1.56a4,4,0,0,0,.91-7.95Z"/><path class="cls-14" d="M2446.86,954.67c-12.25,12-24.51,24.37-36.37,36.36-25.39,25.69-51.65,52.25-79.46,76.19a1.5,1.5,0,0,0,2,2.27c27.9-24,54.2-50.62,79.64-76.35,11.84-12,24.09-24.37,36.33-36.33a1.5,1.5,0,1,0-2.1-2.14Z"/><circle class="cls-8" cx="2904.99" cy="2476.32" r="30.02" transform="translate(-491.23 733.67) rotate(-13.28)"/><path class="cls-14" d="M2887,660.67c-10.63,0-19.29,14.12-19.29,31.47s8.66,31.47,19.29,31.47c6,0,11.54-4.37,15.2-12a1.5,1.5,0,1,0-2.7-1.3c-3.14,6.55-7.7,10.3-12.5,10.3-9,0-16.29-12.77-16.29-28.47s7.31-28.47,16.29-28.47,16.29,12.77,16.29,28.47a1.5,1.5,0,0,0,3,0C2906.31,674.79,2897.66,660.67,2887,660.67Z"/><path class="cls-14" d="M2932.75,660.67c-10.63,0-19.29,14.12-19.29,31.47s8.66,31.47,19.29,31.47S2952,709.49,2952,692.14,2943.39,660.67,2932.75,660.67Zm0,59.94c-9,0-16.29-12.77-16.29-28.47s7.31-28.47,16.29-28.47S2949,676.44,2949,692.14,2941.74,720.61,2932.75,720.61Z"/><path class="cls-14" d="M3048.52,646.4l-102.66,24.7a1.5,1.5,0,0,0,.35,3,1.34,1.34,0,0,0,.35,0l102.66-24.7a1.5,1.5,0,0,0-.7-2.92Z"/><path class="cls-14" d="M2917.19,672.94l-15.67.45a1.48,1.48,0,0,0-1.45,1.54,1.5,1.5,0,0,0,1.49,1.46h.05l15.67-.45a1.5,1.5,0,1,0-.09-3Z"/><path class="cls-13" d="M3162,829.93c-6.75,22.36-6.75,46.15-9.47,69.18-2.49,21.11-9.67,40.44-17.81,60.3-17.62,42.93-39.93,83.73-58,126.46-25.5,60.39-42.36,128.62-22.77,191.17,4,12.78,10.92,26.46,23.71,30.46,8,2.49,16.52.65,24.64-1.2,12.32-2.81,31-.93,31.42-18.32.18-7.63-3.42-14.75-6.4-21.78-21.24-50.18-12.85-108.18,4.82-159.73,20.64-60.23,61.14-120.44,65-185.14,1-16.57-1.2-33.08-8.89-47.36C3180.11,858.82,3166.42,847,3162,829.93Z"/><path class="cls-16" d="M3144.53,824.8c-7,22.29-7.23,46.08-10.19,69.09-2.71,21.07-10.09,40.33-18.45,60.1-18.06,42.74-40.79,83.31-59.29,125.85-26.12,60.11-43.69,128.17-24.75,190.92,3.87,12.82,10.64,26.58,23.38,30.71,7.92,2.57,16.52.82,24.66-1,12.35-2.68,31-.6,31.6-18,.26-7.63-3.26-14.8-6.17-21.86-20.72-50.4-11.72-108.3,6.49-159.67,21.27-60,62.39-119.78,66.92-184.45,1.16-16.55-.85-33.08-8.4-47.44C3162.33,853.88,3148.76,842,3144.53,824.8Z"/><path class="cls-13" d="M3153,810c-5.21-1.56-10.53,1.39-15.27,4.2a392.19,392.19,0,0,1-71.22,33.57,335,335,0,0,1-54.1,13.87,365.09,365.09,0,0,1-40.77,4.49q-10.62.57-21.25.61c-4,0-12.79-2.25-15,3-7.47,18-13,67.87,14.72,66.78,81.71-3.22,162.33-31.44,230.63-80.74C3176.16,847.41,3163.2,812.46,3153,810Z"/><path class="cls-16" d="M3168.7,820.72c-5.6-2.07-11.77.33-17.28,2.66a461.28,461.28,0,0,1-81.89,26.33,407,407,0,0,1-61.08,8.42,447.66,447.66,0,0,1-45.46.4q-11.79-.48-23.53-1.51c-4.47-.39-13.89-3.51-16.8,1.48-10,17.22-20.92,66.27,9.75,68A507.21,507.21,0,0,0,3194.92,869C3190.61,860.23,3179.7,824.16,3168.7,820.72Z"/><path class="cls-6" d="M2962.44,856.47c-6.22,25.18-7,49.08-2.25,71l2.93-.63c-4.63-21.49-3.88-44.94,2.23-69.67Z"/><path class="cls-6" d="M3023.27,915.71c-.6-2.08-1.22-4.17-1.83-6.26-4.92-16.72-10-34-7.75-51.63l-3-.39c-2.34,18.25,2.84,35.85,7.85,52.86.61,2.09,1.23,4.17,1.82,6.25s1.86,6.47,5.55,7.69l1-2.84C3025,920.75,3024,918.28,3023.27,915.71Z"/><path class="cls-6" d="M3084.48,901.69c-.27-.59-.54-1.18-.8-1.78a112.73,112.73,0,0,1-3.8-10.86l-5.81-18.59c-2.19-7-4.47-14.31-5.41-21.7l-3,.38c1,7.65,3.29,15.05,5.53,22.21l5.8,18.59a117.61,117.61,0,0,0,3.92,11.16c.26.61.54,1.22.81,1.83.41.91.84,1.85,1.21,2.78a70,70,0,0,1,2.24,7l2.89-.83a74.8,74.8,0,0,0-2.34-7.27C3085.34,903.6,3084.9,902.63,3084.48,901.69Z"/><path class="cls-6" d="M3137.9,857.35c-3.18-8.49-6.47-17.27-6.94-26.4l-3,.15c.49,9.6,3.86,18.6,7.13,27.3l7.49,20a69.43,69.43,0,0,0,5.82,12.78l2.54-1.59a67.47,67.47,0,0,1-5.55-12.24Z"/><path class="cls-6" d="M3143,956.9a70.3,70.3,0,0,0-14.6-2.82c-1.46-.11-2.88-.14-4.25-.16a26.71,26.71,0,0,1-9-1.16l-1,2.82a29.63,29.63,0,0,0,10,1.34c1.33,0,2.71,0,4.07.15a67.87,67.87,0,0,1,14,2.71c9,2.64,17.68,6.74,26.08,10.71l.77.36,1.28-2.71-.77-.37C3161,963.76,3152.22,959.61,3143,956.9Z"/><path class="cls-6" d="M3084.62,1019.34l.36,3c3.07-.37,6.27.48,9.57,1.45a302.73,302.73,0,0,1,43.83,16.74l1.28-2.72a307.89,307.89,0,0,0-44.27-16.9C3091.79,1019.83,3088.26,1018.91,3084.62,1019.34Z"/><path class="cls-6" d="M3100.4,1102.9l-.31-.1a314.29,314.29,0,0,0-48.77-11l-.43,3a311.71,311.71,0,0,1,48.3,11l.31.1a31.56,31.56,0,0,0,9.36,1.9l.94,0-.18-3C3106.58,1104.84,3103.43,1103.85,3100.4,1102.9Z"/><path class="cls-6" d="M3081.56,1194.07l-2.08-.47c-17.3-3.82-35.14-3-52.39-2.12l.14,3c17.05-.83,34.69-1.68,51.6,2l2.05.46a46.19,46.19,0,0,0,10.32,1.58,19.78,19.78,0,0,0,3.89-.37l-.59-3C3090.32,1196.09,3085.87,1195.06,3081.56,1194.07Z"/><path class="cls-6" d="M3034.46,1275.84l1.13,2.78c22.37-9.17,46.86-7.22,70.54-5.33l4.84.39.23-3-4.83-.39C3082.34,1268.38,3057.48,1266.4,3034.46,1275.84Z"/><path class="cls-15" d="M2865.16,1514.34c-7.83-8.18-35.8,3-46.86,3.62-31.9,1.74-65.17-5.49-95.09,5.7a119.79,119.79,0,0,0-22.62,11.85,224,224,0,0,0-52.35,47,21.82,21.82,0,0,0,13.61,11.92c3.92,1.15,8.07,1.16,12.16,1.16l179.39,0c5.77,0,12-.15,16.6-3.63,7.3-5.53,7-16.41,5.81-25.48C2874.15,1554.11,2874,1523.57,2865.16,1514.34Z"/><path class="cls-18" d="M3368.75,971.85c-20.24-44.19-71.5-75.76-118.35-62.82-67.25,18.57-81.09,92.46-89.24,152-10.75,78.36-3.83,157-7.47,235.4-.49,10.73-3.25,118.6-13.5,120q-139.44,22.65-280,37.12c-5,.51-10.25,1.12-14.25,4.14-6.86,5.17-7.39,15.1-7.26,23.69q.9,56.42,4.75,112.73c.19,2.84.42,5.79,1.83,8.27,3.41,6,11.71,6.57,18.62,6.38q111.12-3,222.15-8.78,56.07-2.9,112.11-6.49,28-1.8,56-3.77c18.43-1.29,28,.9,38.59-16.06,7.15-11.42,10.92-24.73,14.49-37.6q8.79-31.6,17.48-63.24c16.71-61.09,35.7-120.67,47.83-182.45,3.13-16,5.81-32.13,7.87-48.48a923.18,923.18,0,0,0,7-136.44C3386.38,1061.75,3387.18,1012.08,3368.75,971.85Z"/><path class="cls-14" d="M3270.42,904.62a83.17,83.17,0,0,0-20.42,3c-66.49,18.36-81.49,88.72-90.33,153.22-6.74,49.16-6.54,99.19-6.35,147.57.11,28.85.23,58.69-1.12,88,0,1-.12,3-.22,5.62-.43,12.17-1.44,40.68-3.5,66-3.65,45-8,46.89-8.53,47-92.52,15-186.71,27.52-279.94,37.11-4.71.48-10.56,1.08-15,4.43-7.17,5.4-8,15.17-7.86,24.92.55,34.76,2,70,4.21,104.67a1.5,1.5,0,0,0,1.5,1.4h.09a1.5,1.5,0,0,0,1.4-1.6c-2.24-34.64-3.65-69.8-4.2-104.52-.14-9,.57-17.88,6.67-22.47,3.77-2.85,8.93-3.38,13.49-3.85,93.29-9.59,187.54-22.09,280.08-37.12,5.2-.69,11-15,14.59-115.8.1-2.64.16-4.56.21-5.59,1.36-29.36,1.25-59.23,1.13-88.12-.19-48.28-.39-98.2,6.32-147.15,8.71-63.56,23.43-132.86,88.16-150.74a80.57,80.57,0,0,1,19.68-2.85,1.5,1.5,0,0,0,1.47-1.53A1.47,1.47,0,0,0,3270.42,904.62Z"/><path class="cls-14" d="M2885.08,1451a1.5,1.5,0,0,0-1.57-1.43,1.48,1.48,0,0,0-1.43,1.56c.7,16.56,1.72,33.4,2.7,49.69,2.09,34.88,4.26,71,3.54,106.45a1.49,1.49,0,0,0,1.47,1.53h0a1.5,1.5,0,0,0,1.5-1.47c.73-35.61-1.45-71.75-3.55-106.69C2886.79,1484.33,2885.78,1467.51,2885.08,1451Z"/><path class="cls-8" d="M2632.33,2538.45a1.49,1.49,0,0,0-2.09.33,208.42,208.42,0,0,0-20.23,34.43c-8.21,17.63-5.22,33.28-1.76,51.41l.12.67c.11.57.24,1.3.39,2.15,3,16.84,7.64,36.08,16.8,36.08h.36a1.51,1.51,0,0,0,1.42-1.58,1.49,1.49,0,0,0-1.58-1.42c-5.25.27-10-11-14-33.6-.16-.86-.29-1.6-.4-2.18l-.13-.67c-3.36-17.62-6.26-32.83,1.54-49.59a206,206,0,0,1,19.93-33.93A1.49,1.49,0,0,0,2632.33,2538.45Z"/><path class="cls-8" d="M2763.12,1895c-5.13-.32-9.7-4.15-13.37-7.23-27.33-22.92-56-44.89-85.26-65.31a1.5,1.5,0,1,0-1.71,2.46c29.17,20.37,57.78,42.29,85,65.15,4,3.36,9,7.55,15.11,7.93h.1a1.5,1.5,0,0,0,.09-3Z"/><path class="cls-8" d="M3036.54,1864.24c-5.13-.32-9.7-4.15-13.37-7.23-27.33-22.92-56-44.89-85.25-65.31a1.5,1.5,0,0,0-1.72,2.46c29.17,20.36,57.78,42.28,85,65.15,4,3.36,9,7.55,15.12,7.93h.09a1.5,1.5,0,0,0,.09-3Z"/><path class="cls-17" d="M2368.19,962.79c-4.24,4.5-8.62,9.15-13,13.4l-2.41,2.31c-16.28,15.66-33.11,31.85-47.11,50.13l2.38,1.83c13.86-18.11,30.61-34.22,46.81-49.8l2.41-2.31c4.46-4.3,8.86-9,13.12-13.5,10.79-11.46,21.94-23.31,35.6-30.75l-1.44-2.63C2390.46,939.14,2379.14,951.16,2368.19,962.79Z"/><path class="cls-14" d="M3042,754.06c-14.32,10.4-29.73,16.8-46.05,23.58-6.86,2.85-14,5.8-20.92,9.05a1.5,1.5,0,0,0,.64,2.86,1.41,1.41,0,0,0,.63-.14c6.9-3.23,14-6.16,20.8-9,15.76-6.55,32.06-13.31,46.66-23.92a1.5,1.5,0,0,0-1.76-2.43Z"/><path class="cls-8" d="M3028.79,630c-13.2-8.09-27.35-14.92-41-21.52l-48.84-23.58c-2-.95-3.94-1.87-5.9-2.78-9-4.2-17.56-8.17-25-14.89-11.61-10.46-25.95-28.15-28.15-43.61a1.5,1.5,0,0,0-3,.42c2.31,16.25,17.12,34.63,29.11,45.42,7.79,7,16.52,11.08,25.75,15.38,1.95.91,3.9,1.82,5.86,2.77l48.84,23.57c13.61,6.57,27.69,13.37,40.76,21.38a1.52,1.52,0,0,0,.79.22,1.5,1.5,0,0,0,.78-2.78Z"/><path class="cls-8" d="M3109.53,507a1.51,1.51,0,0,0-2.08.43,1.49,1.49,0,0,0,.43,2.08c11.47,7.56,21.83,18.81,30.76,33.42,10.14,16.57,21,35.78,21,54a1.5,1.5,0,0,0,1.5,1.5h0a1.51,1.51,0,0,0,1.5-1.51c0-19-11.09-38.64-21.44-55.55C3132,526.4,3121.38,514.84,3109.53,507Z"/><rect class="cls-7" x="1375.89" y="1618.61" width="49.99" height="1136.91" rx="16.53"/><rect class="cls-18" x="1395.61" y="1618.61" width="49.99" height="1136.91" rx="16.53"/><rect class="cls-7" x="3317.64" y="1618.61" width="49.99" height="1136.91" rx="16.53"/><rect class="cls-18" x="3337.37" y="1618.61" width="49.99" height="1136.91" rx="16.53"/><rect class="cls-18" x="1174.18" y="1578.9" width="2565" height="79.43" rx="5.28"/><rect class="cls-8" x="1057.18" y="1539.18" width="2781" height="79.43" rx="27.46"/><path class="cls-4" d="M3327.47,1471.77h427.84c-.46-8.36-8-15-17.28-15H3296.71c-9.55,0-17.3,7.08-17.3,15.82V1531c0,8.74,7.75,15.82,17.3,15.82H3738c9.26,0,16.82-6.65,17.28-15H3327.47c-9.55,0-17.3-7.09-17.3-15.83V1487.6C3310.17,1478.86,3317.92,1471.77,3327.47,1471.77Z"/><rect class="cls-17" x="3304.36" y="1471.77" width="461.86" height="60.05" rx="17.94"/><path class="cls-4" d="M3755.31,1486l-450.95.15a1.5,1.5,0,1,0,0,3l450.94-.15a1.5,1.5,0,0,0,0-3Z"/><path class="cls-4" d="M3766.22,1500.3H3329a1.5,1.5,0,0,0,0,3h437.2a1.5,1.5,0,0,0,0-3Z"/><path class="cls-4" d="M3656.46,1506.45h-352.1a1.5,1.5,0,0,0,0,3h352.1a1.5,1.5,0,0,0,0-3Z"/><path class="cls-6" d="M3247.25,1381.7h427.84c-.46-8.37-8-15-17.28-15H3216.49c-9.56,0-17.31,7.09-17.31,15.83v58.42c0,8.74,7.75,15.83,17.31,15.83h441.32c9.26,0,16.82-6.66,17.28-15H3247.25c-9.56,0-17.31-7.08-17.31-15.82v-28.4C3229.94,1388.78,3237.69,1381.7,3247.25,1381.7Z"/><rect class="cls-17" x="3224.14" y="1381.7" width="461.85" height="60.05" rx="17.94"/><path class="cls-4" d="M3675.09,1395.87l-451,.15a1.5,1.5,0,0,0,0,3l451-.15a1.5,1.5,0,0,0,0-3Z"/><path class="cls-4" d="M3686,1410.22h-437.2a1.5,1.5,0,0,0,0,3H3686a1.5,1.5,0,0,0,0-3Z"/><path class="cls-4" d="M3576.23,1416.37H3224.14a1.5,1.5,0,0,0,0,3h352.09a1.5,1.5,0,1,0,0-3Z"/><path class="cls-4" d="M3304.68,1289.28h427.84c-.46-8.36-8-15-17.28-15H3273.92c-9.55,0-17.3,7.09-17.3,15.83v58.42c0,8.75,7.75,15.83,17.3,15.83h441.32c9.26,0,16.82-6.65,17.28-15H3304.68c-9.56,0-17.3-7.08-17.3-15.82v-28.39C3287.38,1296.36,3295.12,1289.28,3304.68,1289.28Z"/><rect class="cls-17" x="3281.57" y="1289.28" width="461.85" height="60.05" rx="17.94"/><path class="cls-4" d="M3732.52,1303.46l-450.95.15a1.5,1.5,0,0,0,0,3l450.95-.15a1.5,1.5,0,0,0,0-3Z"/><path class="cls-4" d="M3743.43,1317.8h-437.2a1.5,1.5,0,0,0,0,3h437.2a1.5,1.5,0,0,0,0-3Z"/><path class="cls-4" d="M3633.67,1324h-352.1a1.5,1.5,0,0,0,0,3h352.1a1.5,1.5,0,0,0,0-3Z"/><path class="cls-4" d="M3577.69,536.42a10.35,10.35,0,0,0-13.71-4.16l-10.17,5.1a9.61,9.61,0,0,0-4.32,13.2l205.35,379.36a10.36,10.36,0,0,0,13.71,4.15l10.17-5.1a9.6,9.6,0,0,0,4.31-13.19Z"/><path class="cls-4" d="M3770.9,840.29l-10.67-4a10.29,10.29,0,0,0-13.18,5.5l-163.12,397.92a9.67,9.67,0,0,0,5.73,12.69l10.66,4.05a10.29,10.29,0,0,0,13.19-5.51L3776.62,853A9.66,9.66,0,0,0,3770.9,840.29Z"/><path class="cls-6" d="M3613.78,559.69c-3.11-8.55-12.92-13.1-21.8-10.11l-66.66,22.47a16.38,16.38,0,0,0-10.49,21l6.38,17.54c3.11,8.56,12.92,13.1,21.81,10.11l66.65-22.47a16.36,16.36,0,0,0,10.49-21Z"/><ellipse class="cls-6" cx="3400.61" cy="656.05" rx="85.39" ry="82.2"/><path class="cls-4" d="M3343.07,490.52c-10.64,2.51-16.2,14.49-12,26L3433.47,798.1c4.18,11.49,16.29,17.52,26.24,13.09,88.07-39.23,134.2-131.72,103.9-215S3437.33,468.29,3343.07,490.52Z"/><rect class="cls-6" x="3503.58" y="1216.13" width="214.71" height="39.46" rx="11.79"/><rect class="cls-4" x="3493.83" y="1225.83" width="234.22" height="39.46" rx="11.79"/><ellipse class="cls-6" cx="3742.1" cy="887.45" rx="19.41" ry="18.68"/><path class="cls-12" d="M1915.83,1360.54c-59,3.53-115.82,22.25-172.94,37.38a1459.39,1459.39,0,0,1-335.62,48.1c-13.92.36-28.36.63-40.88,6.71-29.53,14.34-47.42,59.5-47.63,90.24-.07,9.51,5.36,18.48,9.52,26.7a229.57,229.57,0,0,0,15.65,26.66c4,5.8,11.09,2.82,14.38-2.48,5.68-9.15,2-20.91-1-31.28s-4.93-21.37-3.26-32.07c2.69-17.18,14.45-30.15,24.37-43.7-9.73,13.29-17.48,29.63-19.59,46-2.34,18.2,4.38,38.23,6.49,56.35,2.24,19.24,21.59,16.86,26.73.43,2.63-8.42,1.23-17.48.91-26.29a105.09,105.09,0,0,1,22.28-68.11c-9.21,13.18-13.41,28.5-16.48,44.08a188.55,188.55,0,0,0-2.5,52.49c.31,3.65.82,7.55,3.23,10.3,6.62,7.56,18.88-4.2,21.31-10.52,3.14-8.13,3.2-17.89,5-26.44,2-9.4,4.77-18.67,9.93-26.85,5.66-9,13.3-13.26,21.63-19.14-7.59,5.35-13.82,17-17.89,25.07-5,9.81-18,37.93-5.6,46.83,8.22,5.89,16.9-2.71,21.19-9.09l0,0c10.09-15,18.12-32.76,39.8-29.34,29.68,4.68,51.76-4.49,80.71-8.56,30.78-4.32,62,.26,92.68-2.59,29-2.7,57.79-5.62,86.87-9.19,46.65-5.75,93.58,2.48,140.17-1.87,42.13-3.95,82.45-6.54,125-5.93,7.37.11,14.7.16,21.94.09,4.82,0,10.26-.37,13.41-4,6.84-7.88,9.55-22.36,9.86-32.33C2068.06,1405.48,1991.52,1356,1915.83,1360.54Z"/><path class="cls-14" d="M2006.41,1380.53c-26.48-15.78-58.68-23.41-90.67-21.49-10.08.6-20.68,1.7-31.5,3.25a1.5,1.5,0,0,0,.42,3c10.74-1.54,21.26-2.63,31.26-3.23,31.4-1.87,63,5.61,88.95,21.08,27.49,16.37,46.37,40,54.61,68.24a1.51,1.51,0,0,0,1.44,1.08,1.58,1.58,0,0,0,.42-.06,1.51,1.51,0,0,0,1-1.86C2053.91,1421.5,2034.56,1397.3,2006.41,1380.53Z"/><path class="cls-14" d="M1456.49,1517.9c-7.37,5.2-13.42,15.87-18.37,25.62-5.61,11.07-14.32,31.37-9.6,43a1.5,1.5,0,0,0,1.39.94,1.65,1.65,0,0,0,.57-.11,1.51,1.51,0,0,0,.82-2c-4.43-10.89,5.17-31.94,9.5-40.49,3.14-6.18,9.66-19,17.42-24.51a1.5,1.5,0,0,0-1.73-2.46Z"/><path class="cls-14" d="M1416.12,1494a1.49,1.49,0,0,0-2.08.37c-9.73,13.9-13.92,30.37-16.73,44.65a190.13,190.13,0,0,0-2.52,52.91c.33,3.95.89,8.07,3.59,11.16a8.25,8.25,0,0,0,6.37,3,11.09,11.09,0,0,0,3.13-.48,1.5,1.5,0,1,0-.86-2.87c-2.66.79-4.75.27-6.38-1.59-2.11-2.4-2.57-6-2.87-9.44a187.58,187.58,0,0,1,2.48-52.07c2.9-14.68,6.87-30.1,16.24-43.51A1.5,1.5,0,0,0,1416.12,1494Z"/><path class="cls-14" d="M1379.33,1485.59a1.5,1.5,0,0,0-2.1.33c-10.84,14.81-17.9,31.4-19.87,46.72-1.6,12.47,1,25.72,3.43,38.53,1.22,6.33,2.38,12.3,3.06,18.18.89,7.61,4.17,11.26,6.77,13a1.5,1.5,0,0,0,1.66-2.5c-3-2-4.85-5.71-5.45-10.82-.7-6-1.92-12.31-3.09-18.41-2.43-12.58-5-25.58-3.4-37.58,1.9-14.82,8.76-30.92,19.31-45.33A1.5,1.5,0,0,0,1379.33,1485.59Z"/><path class="cls-14" d="M1506.31,1438.57c-32.84,3.1-66.18,5.1-99.08,6l-.67,0c-13.87.35-28.21.72-40.83,6.85-13.75,6.67-26.36,20.75-35.5,39.66-8,16.55-12.86,36-13,51.91-.06,8.63,4.22,16.86,8,24.12.57,1.1,1.14,2.19,1.69,3.27a228.87,228.87,0,0,0,15.75,26.83,8.18,8.18,0,0,0,.6.79,1.48,1.48,0,0,0,1.15.54,1.46,1.46,0,0,0,1-.35,1.49,1.49,0,0,0,.19-2.11c-.15-.18-.29-.37-.43-.57a226.11,226.11,0,0,1-15.55-26.49c-.55-1.08-1.12-2.18-1.7-3.3-3.79-7.29-7.72-14.82-7.66-22.71.21-32.07,19.07-75.44,46.78-88.9,12-5.84,26-6.2,39.6-6.54l.66,0c33-.85,66.39-2.86,99.29-6a1.5,1.5,0,0,0-.28-3Z"/><path class="cls-15" d="M2077.9,1031.68c-7,.15-11.54,7-14,12.83-1.84,4.31-3.54,8.71-5.49,13a42.42,42.42,0,0,1-6.82,10.44c-.54.62-.88,1-1.7,1a.31.31,0,0,1-.21-.05.34.34,0,0,1-.09-.28,6.93,6.93,0,0,1,.31-3c.47-1,1-2.06,1.51-3.07,1.07-2,2.24-4,3.42-6a127.84,127.84,0,0,0,6.81-12.07,103,103,0,0,0,9.42-40c.18-6-.2-14.69-7.63-15.88-16.1-2.6-17.19,16.51-19.29,27.3a88.2,88.2,0,0,1-7.76,21.77c-2.85,5.83-5.78,13.61-10.27,18.3,4.35-12.27,10.79-23.58,14.56-36a132.44,132.44,0,0,0,5.73-39.49c0-3.79-.25-7.57-.66-11.33-.26-2.49-.31-5.46-2.47-7.14-3.5-2.72-9.17-.23-12.59,1.42-8.45,4.06-8.53,11.73-9.73,19.86a188.35,188.35,0,0,1-6,26.76c-1.4,4.68-9,31.74-14.27,30.35,8.65-18.44,15-36.8,16-57.35.48-9.13,0-18.63-3.52-27.18-1.7-4.17-2.56-5.44-7-5.52-7.32-.15-13.48,2.11-16.34,9.36-1.69,4.31-1.93,9-2.53,13.63-3.62,28-21.29,51.34-45.51,65.09-10.89,6.18-7.17-11.49-7.14-17.69l.12-29.58c0-7-.21-14.64-4.91-19.77a14.73,14.73,0,0,0-11.1-4.62c-5.13.12-5.61,2.36-7.16,6.67a169.4,169.4,0,0,0-6.7,24.25c-8.4,42.59-16.44,94-43.93,127.94-44,54.41-84.52,110.57-132.84,161.59-8.89,9.39-18.75,19.12-31.44,21.59-15.39,3-30.44-5.45-43.85-13.55-51.84-31.34-106.48-65.71-132.35-120.48-3.66-7.75-9.09-17.31-17.59-16.23-2.9.37-5.45,2-7.87,3.65a719,719,0,0,0-123.46,104.43c-6.9,7.33-14,15.47-15.26,25.46-1.75,13.7,7.81,26,17,36.32,44.45,49.52,95.4,95.9,150.06,134,70.76,49.28,169.16,99.43,255.14,59.35,49.95-23.28,83.37-71.55,108.62-120.53,39.08-75.8,76.66-149.48,127.84-218.2,15.77-21.18,32.27-42.07,45-65.32,12.84-23.5,16.21-48.87,25.79-73.16C2088.63,1037.28,2086.29,1031.49,2077.9,1031.68Z"/><path class="cls-14" d="M1739.34,1272.84c-4.09,4.51-8.2,8.94-12.22,13.18-9.29,9.81-18.63,18.82-30.64,21.14-14.46,2.81-28.49-4.72-42.78-13.36-46.88-28.34-105.22-63.61-131.77-119.83-2.6-5.51-8.71-18.42-19.14-17.07-3.35.42-6.21,2.34-8.52,3.88a720.65,720.65,0,0,0-123.71,104.65c-7.2,7.64-14.33,16-15.66,26.3a30.91,30.91,0,0,0,2.38,15.77,1.5,1.5,0,1,0,2.77-1.14,27.55,27.55,0,0,1-2.17-14.25c1.21-9.45,8-17.34,14.86-24.62a717.55,717.55,0,0,1,123.2-104.21c2.6-1.74,4.78-3.1,7.23-3.41,7.34-.93,12.43,7.73,16,15.38,26.94,57,85.71,92.57,132.94,121.12,12.6,7.62,25,14.4,38,14.4a35.93,35.93,0,0,0,6.88-.66c12.88-2.5,22.61-11.85,32.25-22,4-4.25,8.16-8.7,12.26-13.23a1.5,1.5,0,0,0-2.22-2Z"/><path class="cls-14" d="M1697.26,1306.71a1.5,1.5,0,1,0-.2,3c4.06.26,7.57,3.88,10.72,11a223.94,223.94,0,0,1,18.33,73.29,1.5,1.5,0,0,0,1.5,1.38h.11a1.5,1.5,0,0,0,1.38-1.61,227.13,227.13,0,0,0-18.57-74.26C1709.19,1316.5,1705.11,1307.23,1697.26,1306.71Z"/><path class="cls-16" d="M1498.85,1062.56c-29.51-43.21-60.89-98.62-111.18-120-53.85-22.93-124.86,5.82-153.87,55.39-27.93,47.72-12.25,105.4,9.21,153.12,28,62.26,69.81,122.62,108.31,178.92,7,10.31,14.3,21.54,20.66,32.19,5.45,9.11,9.71,19.41,22.85,18.08,6.73-.68,12.59-4.69,18.21-8.48,34.17-23,71.93-40.24,106-63.55,16.91-11.58,50.51-36.24,64.37-62.45,6.56-12.4,8.7-25.15,2.58-37A1378.12,1378.12,0,0,0,1498.85,1062.56Z"/><path class="cls-14" d="M1587.3,1208a1386.2,1386.2,0,0,0-87.21-146.32c-3.85-5.64-7.66-11.37-11.7-17.45-26.25-39.52-56-84.32-100.13-103.11-21.24-9-45.85-10.6-71.16-4.49a1.5,1.5,0,1,0,.7,2.92c24.69-6,48.64-4.46,69.28,4.33,43.31,18.44,72.8,62.84,98.81,102,4,6.09,7.86,11.83,11.72,17.49a1381.71,1381.71,0,0,1,87,146,31.16,31.16,0,0,1,2.8,7.84,1.51,1.51,0,0,0,1.47,1.19l.31,0a1.5,1.5,0,0,0,1.16-1.78A34.34,34.34,0,0,0,1587.3,1208Z"/><path class="cls-14" d="M1588.59,1215.46a1.5,1.5,0,0,0-1.16,1.78c1.76,8.38,0,17.73-5.38,27.81-9.85,18.63-31.94,40-63.89,61.91-17.31,11.86-35.92,22.31-53.92,32.42-17.33,9.74-35.25,19.8-52,31.13l-.25.16c-5.41,3.65-11,7.43-17.27,8.07a15.66,15.66,0,0,1-8.31-1.17,1.5,1.5,0,1,0-1.25,2.72,17.53,17.53,0,0,0,7.45,1.56c.78,0,1.58,0,2.41-.13,7-.71,12.93-4.7,18.65-8.56l.25-.17c16.68-11.25,34.55-21.29,51.83-31,18-10.15,36.72-20.63,54.14-32.56,32.35-22.15,54.78-43.93,64.86-63,5.66-10.71,7.57-20.75,5.66-29.83A1.5,1.5,0,0,0,1588.59,1215.46Z"/><path class="cls-14" d="M1386.37,1377.57c-5.11-2.35-8.15-7.63-11.36-13.21-.58-1-1.15-2-1.74-3-6.11-10.23-13.27-21.39-20.71-32.26l-4-5.92c-19.69-28.78-40-58.54-58.86-89.06a1.5,1.5,0,1,0-2.55,1.58c18.85,30.57,39.23,60.36,58.94,89.17l4,5.92c7.41,10.83,14.53,21.93,20.62,32.11.58,1,1.14,1.95,1.71,2.93,3.31,5.75,6.73,11.7,12.71,14.44a1.37,1.37,0,0,0,.62.14,1.5,1.5,0,0,0,.63-2.86Z"/><path class="cls-17" d="M2638.25,1110.4H2171.76a28.33,28.33,0,0,0-25.64,16.27l-117.87,250.89L1979.19,1482h-254c-10.88,0-21.75.15-32.64,0-7.28-.13-14.56-.25-21.83.16-6.62.37-14,.6-19.27,5.12-3,2.54-6.16,8.84-4.36,12.8.45,1,1.13,1,1.89,1.55a5.42,5.42,0,0,1,1.51,1.66,39.77,39.77,0,0,0,3.31,4.23,38,38,0,0,0,28.23,12.54h287.49a28.24,28.24,0,0,0,27,19.87h466.5a28.3,28.3,0,0,0,25.63-16.28l175.17-372.81A28.32,28.32,0,0,0,2638.25,1110.4Z"/><path class="cls-4" d="M1647,1500.7a38,38,0,0,0,38,38h543.23a38,38,0,0,0,38-38H1647Z"/><path class="cls-4" d="M2660.69,1110.4h-466.5a28.31,28.31,0,0,0-25.63,16.27l-117.88,250.89-57.29,121.93a28.32,28.32,0,0,0,25.64,40.36h466.49a28.32,28.32,0,0,0,25.64-16.28l175.16-372.81A28.32,28.32,0,0,0,2660.69,1110.4Z"/><path class="cls-5" d="M2638.49,1129.62H2213.77a25.79,25.79,0,0,0-23.34,14.82l-107.32,228.42-52.16,111a25.79,25.79,0,0,0,23.34,36.76H2479a25.78,25.78,0,0,0,23.34-14.83l159.48-339.42A25.79,25.79,0,0,0,2638.49,1129.62Z"/><ellipse class="cls-4" cx="2378.02" cy="1307.18" rx="40.81" ry="37.58" transform="translate(196.32 2920.84) rotate(-65.29)"/><path class="cls-4" d="M3752.31,2116.6q-1.41-59.82-2.38-119.63c-63.75,19.61-121.38,56.51-166,104.44a366,366,0,0,0-56,78.52c-7,13.31-16.51,27.69-14.23,42.88,2.23,14.82,12.36,29.05,24.28,38.25,20.18,15.57,47.85,10.43,68.32,24.32l.54.37c21.18,14.28,44.31,24.37,70.68,27.32,25.45,2.85,53.45-3.61,69.94-22.51,15.51-17.78,18.15-42.84,16.91-66C3763.71,2188.18,3753.17,2153.12,3752.31,2116.6Z"/><path class="cls-6" d="M3660.28,2038.24a384.66,384.66,0,0,0-76.39,63.17,366,366,0,0,0-56,78.52c-7,13.31-16.51,27.69-14.23,42.88,4.33,28.75,37.63,49.77,64.87,55.51,6,1.25,12.76.38,17.16-3.69a15.74,15.74,0,0,0,2-2.21,35.35,35.35,0,0,0,3.79-7.2c17.76-41.34,32.07-84,49.7-125.39,11.77-27.64,25.07-54.79,41.6-80.1,8.15-12.48,16.92-25.06,27.37-35.81,9.18-9.45,21.31-16.62,29.32-27.09-15.46,6.16-31.12,12.1-46.54,18.23C3688.06,2021,3673.66,2029.81,3660.28,2038.24Z"/><path class="cls-4" d="M3536.82,2182.52c-12.7-10.48-26.84-18-41-25.12-4.48-2.26-9-4.48-13.58-6.32-20.7-8.32-43-8.84-64.64-5.3-30.5,5-60.81,16.22-90.27,26.85,5.35,1.86,10.73,3.95,16.1,6.24,29.11,12.43,58.22,30.83,83.87,50.39,29.54,22.54,56.43,51.79,73.65,88.92,13.26,28.61,21.66,56.78,47.93,70.35,6.63-15.44,13.11-30.86,19-46.75,3.29-8.84,6.37-17.69,9.07-26.41,6.45-20.93,10.2-52.95,2.1-73.9A145.58,145.58,0,0,0,3536.82,2182.52Z"/><path class="cls-6" d="M3493.47,2176.38c-41.65-36.71-93.55-50.07-147.87-37.61q-6.63,1.53-13.15,3.48c-18.45,5.52-31,14.32-45.68,26.67-5.95,5-31.45,21.75-22.82,31.2,5.78,6.34,21.94,4.56,29.68,6.24a259.37,259.37,0,0,1,33.89,9.81c1.63.59,3.26,1.21,4.88,1.84,46.19,17.93,87.76,49.59,123.77,83,16,14.86,31.13,30.69,45.7,47,13.7,15.3,25.86,34.32,40.58,48.25a3.81,3.81,0,0,0,3.57-2.48,11,11,0,0,0,.59-4.58c-.19-15.89,6.15-28.94,9-44.53a167.94,167.94,0,0,0-.65-70.79C3546.12,2235,3523,2202.43,3493.47,2176.38Z"/><path d="M3546.15,2395.21a1.5,1.5,0,1,0-2.76,1.18,639.52,639.52,0,0,1,35.77,110.5,1.49,1.49,0,0,0,1.46,1.17,1.84,1.84,0,0,0,.33,0,1.5,1.5,0,0,0,1.13-1.8A642.06,642.06,0,0,0,3546.15,2395.21Z"/><path d="M3602,2280.29a1.49,1.49,0,0,0-1.84,1.05c-12.9,47.47-11.93,97.6-11,146.07.54,27.53,1.09,56-.9,83.71a1.5,1.5,0,0,0,1.39,1.61h.11a1.5,1.5,0,0,0,1.49-1.39c2-27.85,1.45-56.39.91-84-.93-48.26-1.89-98.17,10.89-145.22A1.5,1.5,0,0,0,3602,2280.29Z"/><path d="M3619.56,2437.78a1.5,1.5,0,0,0-1.73,1.23c-4.62,27.85-9.83,56-15.49,83.69a1.49,1.49,0,0,0,1.17,1.77,1.53,1.53,0,0,0,.3,0,1.51,1.51,0,0,0,1.47-1.2c5.66-27.72,10.88-55.91,15.51-83.8A1.49,1.49,0,0,0,3619.56,2437.78Z"/><rect class="cls-16" x="3558.01" y="2718.57" width="168.2" height="34.27" rx="13.1"/><path class="cls-16" d="M3797.93,2499.73H3486.3a12.23,12.23,0,0,0-11.58,16.12l70.31,208.9a12.21,12.21,0,0,0,11.58,8.32h171a12.21,12.21,0,0,0,11.58-8.32l70.31-208.9A12.23,12.23,0,0,0,3797.93,2499.73Z"/><rect class="cls-16" x="3454.9" y="2434.44" width="372.43" height="78.19" rx="12"/><path class="cls-6" d="M3881.86,2425.79c-3.46-14.83-7.27-29.64-13-43.8-19.84-49.09-66-104.45-125-75.59-16.54,8.09-31.23,19.42-47.93,27.21-18.66,8.7-39.35,12.77-58,21.49l-.75.35c-33.49,16-51.33,51.91-23,81.48,11.72,12.22,27.54,19.94,43.29,26.72q19.53,8.42,39.66,15.45c13.9,4.87,28,9.26,41.55,15a308.36,308.36,0,0,1,42.41,22.35c20.77,12.84,40.65,27.46,57.37,45a172.42,172.42,0,0,1,22.58,29.07c6.85,11.26,6,19.59,20.49,19.22,9.93-18.93,10.16-41.06,9.66-62.26C3890.36,2507.44,3891,2464.76,3881.86,2425.79Z"/><path class="cls-4" d="M3881.86,2425.79c-3.46-14.83-7.27-29.64-13-43.8-19.84-49.09-66-104.45-125-75.59-11.45,5.6-21.82,13-32.94,19.19-7.39,4.11-10.42,9.63-9.21,16.27a27,27,0,0,0,4.52,10.08c4.72,7,11.74,11.9,18.42,16.95,45.76,34.62,81.8,80.88,112,130,16.92,27.51,32.54,57.33,34.21,89.68.2,3.83.24,7.84,2.06,11.2,8.64,16,15.41-7.75,16.5-13.93,2.23-12.62,2.13-25.55,1.83-38.32C3890.36,2507.44,3891,2464.76,3881.86,2425.79Z"/><path class="cls-6" d="M826,1667c-23.15,3.87-47.9,14.68-54.72,38.6-14.74,51.77,49.9,101.8,91.26,120.14a190.15,190.15,0,0,0,23.82,8.7c27.92,8.16,57.6,10.21,86.58,7.51,26.16-2.43,63.63-6.8,68.94-38,3.43-20.2-8.85-40.89-22-55.32C971,1695.1,901.49,1654.38,826,1667Z"/><path class="cls-14" d="M1040.07,1807c-69.81-44.47-149.5-81.55-243.62-113.37a1.5,1.5,0,0,0-1,2.85c93.89,31.73,173.37,68.71,243,113a1.49,1.49,0,0,0,.8.24,1.5,1.5,0,0,0,.81-2.77Z"/><path class="cls-4" d="M1025.83,1925.69c-53.62-48.92-126.57-83.3-200.58-64-22.7,5.91-46.35,18.87-50.93,43.3-9.9,52.87,59.1,97,102,111.53a190.39,190.39,0,0,0,24.53,6.55c28.55,5.65,58.3,5,86.92-.21,25.82-4.76,62.74-12.43,65.13-44C1054.43,1958.4,1040.3,1938.89,1025.83,1925.69Z"/><path class="cls-14" d="M1051.37,1982c-73.63-38.08-156.42-67.93-253.09-91.24a1.5,1.5,0,1,0-.7,2.91c96.43,23.26,179,53,252.41,91a1.55,1.55,0,0,0,.69.16,1.5,1.5,0,0,0,.69-2.83Z"/><path class="cls-6" d="M983.66,1983.79c-72.64-9.09-152.34,4.69-201,62.67-14.93,17.79-26.45,41.85-15.65,64.31,23.37,48.62,105.62,45,149.13,32.31a190.9,190.9,0,0,0,23.82-8.71c26.56-11.73,50.38-29.23,70.5-49.87,18.16-18.63,43.59-46,26.77-73C1026.33,1994,1003.26,1986.24,983.66,1983.79Z"/><path class="cls-14" d="M1037.91,2014.94c-82.45,11.16-167.45,34.25-259.86,70.59a1.5,1.5,0,0,0,.55,2.89,1.52,1.52,0,0,0,.55-.1c92.18-36.25,177-59.28,259.17-70.4a1.5,1.5,0,0,0-.41-3Z"/><path class="cls-6" d="M1011.46,2229.77c-60.15-41-137.33-64.86-207.8-35.49-21.62,9-43.16,25.13-44.16,49.94-2.17,53.72,72.5,87.76,117,96.23a192,192,0,0,0,25.24,3.07c29.08,1.62,58.44-3.1,86-12.29,24.87-8.3,60.31-21,58.11-52.63C1044.5,2258.17,1027.69,2240.82,1011.46,2229.77Z"/><path class="cls-14" d="M1044.89,2282c-78.39-27.47-164.65-45.5-263.72-55.14a1.5,1.5,0,0,0-.29,3c98.82,9.61,184.86,27.6,263,55a1.74,1.74,0,0,0,.5.08,1.5,1.5,0,0,0,.5-2.91Z"/><path class="cls-6" d="M1280.14,1627c-76.37,5.55-133.82,61.45-168.18,124.89-9.27,17.11-16.12,40.09-7.84,58.89,12.8,29.07,50.24,24.48,76.23,20.68,28.8-4.21,57.11-13.2,82.21-27.7a191.16,191.16,0,0,0,21-14.06c35.65-27.55,86.14-91.35,59.15-138.13C1330.24,1630,1303.57,1625.33,1280.14,1627Z"/><path class="cls-14" d="M1315.35,1645.88c-83.58,53.06-151.85,107.84-208.72,167.47a1.5,1.5,0,0,0,0,2.12,1.47,1.47,0,0,0,1,.41,1.5,1.5,0,0,0,1.09-.46c56.7-59.45,124.79-114.08,208.16-167a1.5,1.5,0,1,0-1.61-2.53Z"/><path class="cls-6" d="M1302,1863.8c-74-19.28-147,15.1-200.58,64-14.47,13.2-28.6,32.71-27,53.13,2.4,31.58,39.31,39.26,65.13,44,28.62,5.27,58.37,5.86,86.92.21a192.14,192.14,0,0,0,24.54-6.54c42.87-14.58,111.87-58.66,102-111.53C1348.39,1882.67,1324.74,1869.71,1302,1863.8Z"/><path class="cls-14" d="M1329,1892.9c-96.67,23.32-179.46,53.16-253.09,91.25a1.5,1.5,0,0,0,.69,2.83,1.41,1.41,0,0,0,.69-.17c73.41-38,156-67.73,252.41-91a1.5,1.5,0,0,0-.7-2.92Z"/><path class="cls-4" d="M1336.24,2051.81c-70.47-29.38-147.65-5.48-207.8,35.48-16.23,11.06-33,28.41-34.45,48.84-2.2,31.6,33.24,44.33,58.11,52.62,27.57,9.2,56.93,13.92,86,12.3a192,192,0,0,0,25.23-3.07c44.55-8.47,119.22-42.52,117.05-96.23C1379.4,2076.94,1357.86,2060.82,1336.24,2051.81Z"/><path class="cls-14" d="M1358.73,2084.37C1259.66,2094,1173.4,2112,1095,2139.5a1.5,1.5,0,0,0,.49,2.92,1.74,1.74,0,0,0,.5-.08c78.15-27.39,164.19-45.37,263-55a1.5,1.5,0,0,0-.29-3Z"/><path class="cls-4" d="M1336.24,2254.72c-70.47-29.37-147.65-5.48-207.8,35.49-16.23,11.05-33,28.4-34.45,48.83-2.2,31.6,33.24,44.33,58.11,52.63,27.57,9.19,56.93,13.91,86,12.29a192,192,0,0,0,25.23-3.06c44.55-8.48,119.22-42.52,117.05-96.23C1379.4,2279.85,1357.86,2263.73,1336.24,2254.72Z"/><path class="cls-14" d="M1358.73,2287.28c-99.07,9.64-185.33,27.68-263.71,55.14a1.5,1.5,0,0,0,.49,2.92,1.47,1.47,0,0,0,.5-.09c78.15-27.38,164.19-45.36,263-55a1.5,1.5,0,0,0,1.35-1.64A1.52,1.52,0,0,0,1358.73,2287.28Z"/><path class="cls-6" d="M1024.08,1452.56c-52.75,14.53-62.75,94.71-57.24,138.9a181.18,181.18,0,0,0,4.8,24.49c7.39,27.64,21,53.59,38.43,76.48,15.71,20.66,39,49.8,68.95,38,19.37-7.62,31-28.65,36.73-47.21,21.2-68.76,20.58-148.14-29.62-204.86C1070.73,1461,1048.46,1445.84,1024.08,1452.56Z"/><path class="cls-14" d="M1045.8,1466.29a1.5,1.5,0,0,0-1.14,1.79c21.13,95.18,30.21,181,27.74,262.38a1.49,1.49,0,0,0,1.45,1.54h.05a1.5,1.5,0,0,0,1.5-1.45c2.47-81.62-6.62-167.69-27.81-263.12A1.5,1.5,0,0,0,1045.8,1466.29Z"/><path class="cls-14" d="M1073.9,1729a1.5,1.5,0,0,0-1.5,1.5v694.6a1.5,1.5,0,0,0,3,0V1730.5A1.5,1.5,0,0,0,1073.9,1729Z"/><path class="cls-14" d="M1105.49,1814.75c-7.36,3.69-14.67,7.7-21.72,11.93l-2.36,1.45c-6.42,4-7.41,4.57-14-.4l-19.29-14.55c-2.28-1.72-4.08-3.19-4.84-5.19a1.48,1.48,0,0,0-1.93-.87,1.5,1.5,0,0,0-.87,1.93c1.12,3,3.74,4.94,5.83,6.52l19.29,14.56c3.85,2.9,6.39,4.14,8.81,4.14s4.94-1.35,8.57-3.59c.71-.44,1.48-.92,2.33-1.42,7-4.2,14.22-8.18,21.51-11.82a1.5,1.5,0,0,0-1.34-2.69Z"/><path class="cls-14" d="M1048.44,1982.58a1.5,1.5,0,1,0-.88,2.87c1.6.49,8.25,4.14,14.62,8.5,11,7.53,10.71,10,10.71,10a1.33,1.33,0,0,1-.63.32c-12.3,3.83-23.42,7.4-34,10.92a1.5,1.5,0,0,0,.48,2.93,1.6,1.6,0,0,0,.47-.08c10.57-3.52,21.68-7.08,34-10.91,2.38-.74,2.74-2.33,2.73-3.21C1075.87,1997.12,1051.35,1983.47,1048.44,1982.58Z"/><path class="cls-14" d="M1094.75,2140.15a1.51,1.51,0,0,0-2,.56,6.86,6.86,0,0,1-2.66,2.1l-.14.08a63.75,63.75,0,0,0-16.24,13.3,1.49,1.49,0,0,0,.15,2.11,1.47,1.47,0,0,0,2.11-.14,60.46,60.46,0,0,1,15.47-12.67l.15-.08a9.3,9.3,0,0,0,3.77-3.21A1.51,1.51,0,0,0,1094.75,2140.15Z"/><path class="cls-14" d="M1060.66,2297.52c-4.17-5.88-8.9-12.56-15.82-16.53a1.5,1.5,0,1,0-1.49,2.6c6.35,3.65,10.87,10,14.87,15.67l14.83,20.93a1.49,1.49,0,0,0,1.23.64,1.45,1.45,0,0,0,.86-.28,1.5,1.5,0,0,0,.36-2.09Z"/><path class="cls-14" d="M1094.17,2341.51a7,7,0,0,0-3.15,2.12l-8.08,8.24c-4.28,4.37-9.12,9.31-11.19,15.68a1.5,1.5,0,0,0,1,1.89,1.48,1.48,0,0,0,.46.08,1.52,1.52,0,0,0,1.43-1c1.84-5.7,6.43-10.38,10.47-14.51l8.08-8.24a4.37,4.37,0,0,1,1.74-1.31,1.5,1.5,0,1,0-.73-2.91Z"/><path class="cls-16" d="M1243,2455H902c-11,0-18.7,11.85-15.21,23.3l79,258.35c2.2,7.19,8.32,12,15.21,12h183c6.88,0,13-4.84,15.2-12l79-258.35C1261.68,2466.85,1253.94,2455,1243,2455Z"/><rect class="cls-16" x="867.54" y="2402.4" width="406.54" height="76.91" rx="28.71"/></g></svg>